<?xml version="1.0" encoding="UTF-8"?>
<svg viewBox="0 0 546.88538 807.05829" xmlns="http://www.w3.org/2000/svg">
 <path d="m222.59 804.93c-1.4514-1.4514-2.483-3.6399-2.4869-5.2757-0.0224-9.4825-1.0767-69.325-1.2649-71.795-0.39146-5.139-1.5105-5.3784-25.313-5.416-31.442-0.0496-37.442 0.26424-40.975 2.1431-2.0068 1.0672-3.5548 1.3132-4.5 0.71512-0.79248-0.50141-2.3836-0.91856-3.5359-0.92698-2.7537-0.0201-5.5629-3.22-5.8982-6.7184-0.14744-1.5383-0.59256-3.5782-0.98916-4.5332s-0.33781-4.105 0.13065-7 0.71558-8.1887 0.54915-11.764-0.47624-16.147-0.68847-27.937-0.68035-22.59-1.0403-24c-0.62234-2.4376-1.296-11.795-1.8763-26.063-0.28297-6.9574 1.3782-12 3.9532-12 0.82181 0 3.1893 1.07 5.261 2.3779 2.7163 1.7147 5.2905 2.398 9.2301 2.4502 40.564 0.53652 59.162 0.25171 60.583-0.92775 1.341-1.1129 1.5142-4.5796 1.267-25.345-0.15757-13.231-0.70444-24.621-1.2153-25.313-0.5245-0.71001-0.63778-4.6276-0.26025-9 0.54081-6.2635 0.67898-28.951 0.30599-50.243-0.0337-1.925-0.0152-8.225 0.0411-14s-0.0861-12.3-0.3166-14.5-0.63164-8.275-0.89152-13.5-0.52755-9.5-0.59484-9.5c-0.25911 0-0.74454-4.3541-1.4827-13.299-0.69027-8.3649-1.0949-9.7279-4.0282-13.57-3.0091-3.941-19.227-17.767-25.739-21.944-1.537-0.98576-3.2178-2.9053-3.735-4.2656s-1.7346-2.7588-2.7054-3.1078c-2.8541-1.026-9.265-8.7962-9.265-11.23 0-0.60859-0.86067-3.0141-1.9126-5.3456-4.7801-10.595-8.0367-24.854-8.0638-35.308-0.0297-11.438 1.8355-17.854 6.8449-23.545 3.6826-4.1836 4.2837-4.4692 11.945-5.6747 9.5565-1.5037 18.662-0.41355 26.599 3.1845 2.8751 1.3034 8.1308 2.5727 12.087 2.9192 6.5798 0.57629 8.2756 0.8426 14.5 2.277 1.375 0.31686 4.6076 0.95628 7.1835 1.4209s5.6967 1.3871 6.9351 2.0498c3.2944 1.7631 16.818 5.9365 19.237 5.9365 2.6625 0 10.669 2.9385 12.723 4.6695 0.86831 0.73179 2.1484 1.3305 2.8448 1.3305s4.3184 0.92712 8.049 2.0603c7.3869 2.2437 13.256 1.7098 13.827-1.2578 0.30281-1.5724-5.0396-4.229-6.1904-3.0783-0.30847 0.30846-1.1342 0.087-1.835-0.49217s-3.0742-1.4105-5.2742-1.8474c-4.8413-0.96145-4.645-0.91083-6.5-1.6763-2.008-0.82867-12.81-3.7632-16.25-4.4146-1.5125-0.28639-2.75-0.90839-2.75-1.3822s-1.9821-1.7644-4.4046-2.868c-6.9878-3.1833-16.595-13.971-16.595-18.634 0-1.26-0.45-2.5691-1-2.909s-1-2.3649-1-4.5-0.45122-4.1608-1.0027-4.5017c-0.67028-0.41425-0.67028-1.2409 0-2.4933 0.55148-1.0305 1.0093-2.9156 1.0174-4.1893s0.66546-3.4407 1.4608-4.8157 1.7531-3.175 2.1283-4c1.1004-2.4192 7.6929-9 9.016-9 0.6677 0 4.1504-1.5578 7.7393-3.4617 7.3241-3.8855 19.229-7.2389 24.891-7.0111 2.0625 0.083 3.75-0.24335 3.75-0.72517 0-1.9436 16.155 1.1961 21.447 4.1681 1.9376 1.0883 4.1642 1.7326 4.9479 1.4319s3.5994 0.61077 6.2572 2.0256 5.5967 2.5724 6.5312 2.5724 1.996 0.48068 2.3591 1.0682 1.2817 0.82966 2.0414 0.53815 3.3017 0.17794 5.6488 1.0432c5.0688 1.8686 18.548 2.0734 21.803 0.33124 4.105-2.1969 26.625-2.8475 38.632-1.1161 4.3078 0.62122 10.843 1.3887 14.523 1.7056 6.3079 0.54315 6.9171 0.82232 10.664 4.8869 3.9337 4.2676 9.5099 14.717 10.429 19.543 0.26191 1.375 1.1495 4.975 1.9725 8 1.1693 4.298 1.4041 9.7616 1.0745 25-0.59436 27.478-3.2429 38.195-11.729 47.459-1.8884 2.0616-4.4708 5.7039-5.7388 8.0941s-3.4432 4.9292-4.8339 5.6422-5.0035 2.9852-8.0285 5.0491c-3.025 2.064-5.9816 3.7532-6.5702 3.7539s-2.3886 1.66-4 3.6872c-4.2455 5.341-6.292 7.0633-9.2786 7.8083-1.4582 0.36373-4.8256 1.7514-7.4833 3.0836s-6.3468 2.4223-8.1981 2.4223c-4.9923 0-15.912 9.2646-20.368 17.28-1.1558 2.0792-2.1015 4.8017-2.1015 6.05s-0.38858 2.6971-0.86352 3.2196c-2.7082 2.9794-3.3742 9.1579-3.7677 34.95-0.22654 14.85-0.35276 32.625-0.28047 39.5s0.0424 13.4-0.0664 14.5c-0.92008 9.3016 0.60176 68.213 1.869 72.349 0.80723 2.6343 0.69662 3.8514-0.51856 5.706-2.7771 4.2384 1.4026 6.8168 8.6832 5.3566 2.4445-0.49029 11.261-1.1253 19.592-1.4111s17.106-0.75755 19.5-1.0483 7.6493-0.55577 11.679-0.58902 8.4458-0.64129 9.8142-1.3512c3.3374-1.7315 5.6458-0.96833 8.4196 2.7835 2.0731 2.804 2.2985 4.1379 2.1775 12.886-0.0743 5.3672-0.59339 10.615-1.1536 11.662-1.914 3.5764-4.5069 19.542-4.1669 25.657 0.0306 0.55 0.28853 6.625 0.57321 13.5s0.94204 14.549 1.4608 17.052c0.7331 3.5385 1.4408 23.195 1.1028 30.63-0.082 1.8046-3.467 2.491-6.5341 1.3249-6.8548-2.6062-20.573-2.7899-56.365-0.7546-2.3901 0.13591-4.5542-0.0904-4.809-0.50289-0.81703-1.3226-12.021-0.84533-13.189 0.5618-0.59878 0.72149-1.0773 3.309-1.0634 5.75s-0.0199 10.063-0.0753 16.938 0.29001 14.531 0.76743 17.012 0.49374 7.6553 0.0359 11.5-0.97935 12.74-1.1593 19.77-0.74077 13.196-1.2463 13.702-2.4933 0.9052-4.4172 0.8881c-7.692-0.068-27.559 0-28.498 0.1005-0.55 0.058-6.9876-0.054-14.306-0.2484s-13.47-0.087-13.672 0.2383-2.3136 0.4532-4.6942 0.2838c-11.191-0.7961-29.883-0.2055-41.098 1.2988-3.0771 0.4127-4.2255 0.05-6.25-1.9747zm133.91-252.26c-2.8061-0.55234-12.394-10.596-12.394-12.983 0-1.0369 1.35-3.0699 3-4.5177 2.9314-2.5723 3.0057-2.8689 3.25-12.973 0.1375-5.6871 0.25-22.339 0.25-37.004 0-26.664 0-26.664 2.5-29.345 1.375-1.4746 4.525-3.8482 7-5.2746s5.758-3.6218 7.2955-4.8785 4.5055-2.7455 6.5955-3.3083 5.446-2.4871 7.4578-4.2763c5.6555-5.0298 32.651-31.628 32.651-32.171 0-0.26512 1.4625-2.5756 3.25-5.1344s3.6989-5.3939 4.2475-6.3001 2.0311-3.1064 3.2943-4.8892c3.277-4.6246 11.056-21.236 11.855-25.314 0.37097-1.8945 1.2331-4.3446 1.9158-5.4446s1.5614-3.575 1.9527-5.5c0.39132-1.925 1.7334-6.65 2.9825-10.5 2.2283-6.8684 3.2816-12.03 4.0814-20 2.397-23.885 2.3806-25.322-0.48924-43-0.53574-3.3-1.642-10.275-2.4584-15.5s-2.8426-13.55-4.5026-18.5-4.0076-13.386-5.2168-18.746-2.8042-10.249-3.5443-10.863-1.1174-1.4862-0.8384-1.9376c0.5486-0.88765-1.3791-6.436-5.0647-14.577-1.276-2.8186-2.8238-7.0936-3.4397-9.5-1.6606-6.4889-8.3482-21.035-12.715-27.657-5-7.5819-13.947-18.13-15.81-18.64-1.1-0.30108-4.25-2.7201-7-5.3756s-7.25-6.3299-10-8.1654-5.9-4.1226-7-5.0825-5.15-2.991-9-4.5134-8.575-3.6619-10.5-4.7545c-7.5432-4.2811-14.976-7.6867-16.777-7.6867-1.0392 0-2.1928-0.30342-2.5637-0.67426-0.9584-0.95841-18.588-6.9955-28.703-9.8292-4.6993-1.3165-12.772-2.7128-17.94-3.1029s-10.468-1.2657-11.779-1.9457c-1.9202-0.99619-3.5834-0.95601-8.5601 0.20678-3.3973 0.79378-7.0503 1.2158-8.1178 0.93795s-3.3175 0.12127-5 0.88706c-4.3669 1.9876-10.537 3.5082-14.262 3.5147-4.4988 8e-3 -7.5428 1.6263-9.512 5.0574-1.1938 2.08-2.4612 2.9482-4.3043 2.9482-1.4367 0-3.4187 0.4316-4.4044 0.9591s-3.5436 1.061-5.6843 1.1856-5.4591 1.268-7.3743 2.5409-3.8754 2.3144-4.3561 2.3144-2.5137 1.2923-4.5179 2.8717c-3.9394 3.1046-12.127 7.1283-14.506 7.1283-0.80934 0-1.6215 0.3375-1.8049 0.75-0.55324 1.2448-6.1066 4.771-9.8333 6.2438-1.925 0.76078-6.495 3.6609-10.156 6.4447s-9.4403 7.0561-12.844 9.494-8.1755 6.9379-10.605 10-5.9885 7.1425-7.9098 9.0675c-1.9213 1.925-3.4917 3.8805-3.4897 4.3456s-1.0089 2.2588-2.2464 3.9859c-2.8618 3.9942-4.7488 7.5793-4.7543 9.0328-2e-3 0.62463-1.3504 3.1607-2.9957 5.6357s-2.9934 5.1992-2.9957 6.0537-1.0989 3.7795-2.4368 6.5c-2.8268 5.7481-6.3532 15.217-7.8005 20.946-0.55579 2.2-1.6307 5.815-2.3888 8.0334s-1.3893 4.9184-1.4028 6-0.875 4.5072-1.9144 7.6123-2.023 7.3802-2.1858 9.5-1.1987 5.1091-2.3021 6.6427c-1.7193 2.3898-1.8202 3.0863-0.70549 4.8712 1.2608 2.0189 1.4395 15.076 0.23731 17.339-0.61097 1.1502-0.70046 2.047-0.93391 9.3582-0.13532 4.2381-0.47539 5.2402-1.6281 4.7979-1.1805-0.453-1.2754-0.0814-0.5 1.9581 0.52638 1.3845 0.95705 3.6723 0.95705 5.0841s0.95792 4.1168 2.1287 6.0112c1.762 2.8509 2.0201 4.3684 1.4983 8.808-0.34672 2.95-0.23875 5.6057 0.23993 5.9015s1.1711 2.4188 1.5387 4.7177 2.4517 7.7802 4.6314 12.181 3.963 8.7605 3.963 9.6887c0 1.9429 2.7071 7.6959 3.9962 8.4927 0.47826 0.29558 2.0924 3.117 3.587 6.2699 5.0275 10.606 6.6946 13.718 9.0611 16.916 1.2956 1.7508 2.3557 3.5696 2.3557 4.0418s2.025 2.8459 4.5 5.2749 4.5 4.9286 4.5 5.5546c0 2.0735 3.1414 7.4761 4.0283 6.9279 0.47924-0.29618 1.3985 0.48659 2.0427 1.7395s3.4793 4.6302 6.3002 7.5051 6.57 6.6999 8.3315 8.5 5.024 4.7876 7.25 6.6389 4.0473 3.8196 4.0473 4.3739c0 1.4673 8.5106 8.7251 12.812 10.926 2.0286 1.0379 6.7361 2.7974 10.461 3.9099 6.9713 2.0821 15.657 7.1588 15.819 9.2454 0.10979 1.4204 0.048 11.375-0.088 14.179-0.26669 5.4982 1.1327 60.621 1.6412 64.651 0.53401 4.2314 0.34949 4.8067-2.0447 6.3755-2.2043 1.4443-3.3194 1.5507-6.8657 0.6554-2.3287-0.58792-6.9034-1.2953-10.166-1.572-3.6684-0.31109-6.9449-1.2519-8.5863-2.4654-1.4598-1.0793-5.9904-2.922-10.068-4.095-8.1681-2.3496-19.095-7.3578-20.962-9.608-0.65799-0.79289-1.8026-1.4416-2.5435-1.4416-1.8448 0-8.3662-3.6958-11.408-6.465-1.375-1.2518-3.85-3.1102-5.5-4.1296s-6.6-4.7972-11-8.395-9.9555-7.8068-12.346-9.3534c-6.1674-3.9907-18.149-14.675-31.675-28.245-2.7894-2.7986-7.1977-6.3343-9.7962-7.8571-3.1148-1.8254-5.625-4.3506-7.3675-7.4116-1.4537-2.5536-3.7511-5.8517-5.1054-7.3291-2.7742-3.0264-4.2032-5.3256-7.3423-11.814-1.1975-2.475-3.1642-6.075-4.3704-8-3.8087-6.0781-10.996-18.426-11.044-18.974-0.0253-0.28936-1.2218-3.0011-2.6588-6.0261-4.9901-10.505-6.6376-15.534-7.1186-21.732-0.45318-5.8392-3.045-15.218-6.4296-23.268-0.80946-1.925-1.8516-5.75-2.3158-8.5s-1.5177-7.9165-2.3411-11.481-1.5836-10.072-1.6894-14.46-0.82485-10.247-1.598-13.019c-0.9834-3.5262-1.4074-10.83-1.4116-24.315-8e-3 -24.89 0.60681-29.41 7.1777-52.795 1.5562-5.5385 3.512-13.188 4.346-17 2.8261-12.915 6.5602-25.745 7.9575-27.341 0.76517-0.87408 1.6955-2.7142 2.0674-4.0892 1.1522-4.2597 3.6367-9.9424 11.233-25.692 4.03-8.3557 7.3273-15.653 7.3273-16.215s1.2926-2.5012 2.8725-4.3078 3.7174-4.8658 4.75-6.7982c1.9251-3.6024 6.994-10.121 13.624-17.521 2.0606-2.2999 4.0341-5.6191 4.3855-7.376 0.4119-2.0595 1.9229-4.1526 4.2534-5.8918 1.988-1.4836 3.779-3.0787 3.9801-3.5444s1.6636-2.3252 3.25-4.132 2.8844-3.5416 2.8844-3.8552 1.9833-3.4041 4.4073-6.868c4.5376-6.4842 8.3912-9.9644 12.465-11.257 3.2024-1.0164 8.9286-4.994 13.128-9.1188 5.4923-5.3954 11.941-10.018 18.991-13.612 3.5703-1.8202 7.1276-3.9097 7.9052-4.6433s2.3564-1.7616 3.5085-2.2845 4.3448-2.2738 7.0948-3.8909 6.8-3.8459 9-4.9529 4.675-2.4075 5.5-2.89c0.825-0.48245 3.975-2.0977 7-3.5894s7.75-3.9926 10.5-5.5576c5.4898-3.1241 20.699-8.4373 27-9.4321 2.2-0.34736 6.6251-0.98931 9.8336-1.4265s6.1957-1.3808 6.6382-2.0968 1.3042-0.99296 1.915-0.6155 3.9176-0.0329 7.3487-0.91189 12.319-1.9177 19.751-2.3082c12.034-0.63226 19.18-0.70029 41.732-0.39722 3.4204 0.046 7.2454 0.65295 8.5 1.3488s4.9811 1.5809 8.2811 1.9666 8.25 1.2413 11 1.9012 6.125 1.356 7.5 1.5469c4.7952 0.6656 8.5514 1.357 16 2.9453 4.125 0.87956 8.2119 1.708 9.082 1.8409s3.3342 1.2755 5.4758 2.5391 5.4797 2.5411 7.418 2.8389 5.3779 1.7731 7.6436 3.2785 7.2157 4.4592 11 6.5642 8.9056 5.2631 11.381 7.0181 7.421 4.4141 10.991 5.909 7.3962 3.6792 8.5023 4.8539 3.8101 3.0358 6.0088 4.1358c9.8047 4.9051 15.519 9.5687 29.329 23.938l10.918 11.362c2.3375 2.4331 4.25 4.7475 4.25 5.143s1.0676 1.2906 2.3725 1.9889 3.3486 3.0064 4.5416 5.1291 3.3265 4.7698 4.741 5.8825 3.9216 4.1681 5.5712 6.7899 4.636 6.761 6.6365 9.1985c3.4028 4.146 4.7973 6.4412 10.067 16.568 1.1447 2.2 2.9623 5.35 4.0391 7s3.1417 5.4682 4.5886 8.4849c2.1332 4.4475 2.4114 5.8361 1.4711 7.3417s-0.81711 2.1165 0.65612 3.2333c0.99866 0.75708 2.3491 1.3908 3.001 1.4083s1.7548 1.6068 2.4509 3.5318 1.5677 3.5 1.9369 3.5 0.95285 1.7607 1.297 3.9126 1.5252 4.9644 2.6247 6.25c5.3004 6.1974 6.0053 7.297 6.0053 9.3679 0 1.2235 0.675 2.7848 1.5 3.4694 0.85411 0.70885 1.5 2.8891 1.5 5.0634 0 2.1002 0.45734 4.1012 1.0163 4.4466s0.72477 1.0998 0.36844 1.6764c-0.6858 1.1096 0.90086 9.3495 3.2238 16.742 0.76532 2.4355 1.3915 6.0775 1.3915 8.0934s0.9 6.2812 2 9.4784 2 6.8972 2 8.2223 0.50344 3.3499 1.1188 4.4996 1.2784 5.7326 1.4734 10.184 0.86503 9.9703 1.4888 12.264c1.0697 3.9332 0.96682 9.5346-0.74086 40.33-0.50048 9.0253-0.48162 15.192 0.0481 15.722 0.21428 0.21429-0.46041 4.2793-1.4993 9.0334s-1.8889 10.369-1.8889 12.477-0.64485 5.3761-1.433 7.2624-1.7525 5.56-2.1429 8.1639c-0.73648 4.9112-3.8228 12.853-5.3655 13.806-0.48648 0.30066-1.2026 2.4568-1.5914 4.7914-0.61638 3.7015-1.7978 6.52-5.3422 12.745-2.0985 3.6854-5.9547 12.769-6.5804 15.5-0.37798 1.65-1.7258 4.125-2.9953 5.5s-4.4201 6.55-7.0016 11.5-5.6356 10.009-6.7871 11.242-2.1616 3.1641-2.2447 4.2915-1.8081 4.2694-3.8335 6.9823-3.7015 5.2817-3.7247 5.7085-2.2693 3.026-4.9913 5.776-4.953 5.4807-4.9578 6.0682c-5e-3 0.58752-3.8308 5.0875-8.5022 10s-8.4964 9.3797-8.5 9.9271c-8e-3 1.1931-14.82 15.505-16.047 15.505-1.2938 0-5.9598 4.5715-5.9598 5.839 0 0.61031-1.2386 1.7501-2.7524 2.533s-3.6513 2.4173-4.75 3.6321c-2.1902 2.4217-7.5692 5.3702-11.524 6.3171-1.3898 0.33271-4.3863 2.1966-6.659 4.1419s-4.523 3.537-5.0008 3.537c-1.0858 0-9.9052 4.6203-17.813 9.332-8.0474 4.7946-12.842 7.4309-13.75 7.5608-0.4125 0.059-0.8625 0.14472-1 0.19055s-1.15 0.24676-2.25 0.4465c-3.8449 0.69817-11.029 2.3983-14.493 3.4299-3.5617 1.0606-3.9322 1.0778-7.6121 0.35344zm-209.99-246.42c-0.94743-1.0469-1.948-1.6781-2.2234-1.4026s-1.6316-1.1843-3.0136-3.2439-2.783-3.9697-3.1131-4.2447c-0.33018-0.275-1.7135-2.6375-3.0741-5.25s-2.7528-4.75-3.0939-4.75c-0.72467 0-2.0521-7.4136-1.9511-10.896 0.0382-1.318-0.33363-2.893-0.82638-3.5s-1.4244-4.2536-2.0703-8.1036l-1.5107-9c-0.18498-1.1-0.82875-3.2668-1.4306-4.8151s-1.0943-5.5082-1.0943-8.7997-0.61916-7.1997-1.3759-8.6849c-1.7674-3.4687-3.6241-19.447-3.6241-31.188 0-8.3677 0.23036-9.4598 2.7061-12.83 5.1529-7.0137 14.692-16.112 17.552-16.74 1.5566-0.34188 3.5978-1.4267 4.536-2.4106s5.5762-3.0397 10.307-4.5684c8.6007-2.7793 8.6007-2.7793 14-0.54104 6.3027 2.6128 13.762 8.7062 14.172 11.577 0.15702 1.1 0.53293 2.45 0.83537 3s0.67006 4.8227 0.81693 9.4948 0.63963 9.191 1.095 10.042c0.8554 1.5983 2.5894 13.082 3.5168 23.291 0.60133 6.6194 2.5081 14.347 4.955 20.081 1.256 2.9434 1.7299 7.56 1.9187 18.694 0.31482 18.562-0.31824 20.195-12.281 31.685-6.9516 6.6768-9.1016 8.2036-11.06 7.854-2.69-0.48005-7.1425 1.1415-8.3408 3.0377-2.1525 3.406-3.992 4.2418-9.1992 4.1796-3.9858-0.0476-5.8568-0.56424-7.1272-1.968zm59.725-42.26c-1.7197-1.7743-3.1268-3.5195-3.1268-3.8782s-1.2747-2.5873-2.8326-4.9524c-2.6504-4.0235-3.1457-5.9592-5.6477-22.074-0.23684-1.5254-0.71097-3.227-1.0536-3.7814s-1.0163-5.1646-1.4969-10.245-1.5771-11.929-2.4367-15.219-1.7826-7.7148-2.0512-9.833-0.68405-4.1678-0.92317-4.5547-0.70049-6.3039-1.0252-13.149-1.1034-14.92-1.7304-17.945c-1.4085-6.796-1.1487-9.9999 1.353-16.686 1.7191-4.5948 3.4966-6.7052 9.3444-11.094 4.9271-3.6982 11.871-7.2911 16-8.2786 2.75-0.65772 5.5107-1.8286 6.1349-2.6019 1.3575-1.6819 10.726-3.3497 18.365-3.2692 5.2697 0.0555 5.6568 0.24626 9.2438 4.5554 3.2716 3.9301 3.7426 5.152 3.7338 9.6862-0.0152 7.8446 0.63556 13.755 2.0028 18.189 0.67835 2.2 1.1865 5.4504 1.1292 7.2231s0.54028 5.1477 1.328 7.5 1.6274 7.3304 1.866 11.062 0.7179 7.0695 1.0651 7.4167 0.63124 1.4884 0.63124 2.536 0.675 2.5798 1.5 3.4048 1.5666 2.9304 1.6481 4.6786c0.2341 5.0258 0.36184 5.963 1.3191 9.6786 0.49596 1.925 0.78591 4.3143 0.64433 5.3096s0.22537 2.3913 0.81544 3.1023 1.3657 4.0948 1.7237 7.5197 1.1455 6.7712 1.7501 7.4363c2.386 2.6249 3.448 5.5956 4.6382 12.973 1.4644 9.078 0.73931 10.473-6.9114 13.292-2.5452 0.93797-5.338 2.3042-6.2063 3.0359s-1.8675 1.3305-2.2204 1.3305-3.0175 1.0684-5.9212 2.3741c-10.432 4.6908-22.369 7.6112-33.403 8.1716-5.7683 0.29299-6.3045 0.12403-9.25-2.915zm165.37-7.5322c-2.75-0.93296-6.7425-2.4618-8.8721-3.3974s-4.198-1.7011-4.5964-1.7011c-2.0346 0-7.353-3.5133-7.7778-5.1379-0.26782-1.0241-0.84044-1.8621-1.2725-1.8621-1.7233 0-2.6653-5.9304-2.2011-13.858 0.33628-5.7433 0.1261-8.5822-0.67192-9.0754-0.6387-0.39474-1.1986-2.2588-1.2441-4.1423-0.16262-6.7207-2.1822-15.459-4.0533-17.538-2.1809-2.4228-2.0642-3.9685 0.51724-6.8479 3.9454-4.4009 6.42-15.79 3.6328-16.719-0.6734-0.22447-0.49739-1.8822 0.5-4.7091 1.7344-4.9157 2.0576-13.673 0.53923-14.611-1.3586-0.83966-1.2613-5.7474 0.18203-9.1849 0.65012-1.5483 1.4376-5.7236 1.75-9.2785 0.56797-6.4634 0.56797-6.4634 6.5647-7.6603 6.7139-1.3401 6.1943-1.4939 19.993 5.9188 5.142 2.7623 8.809 5.508 10.289 7.704 2.5696 3.8131 6.843 6.9844 9.425 6.9944 1.7186 7e-3 2.1081 0.4568 8.2259 9.5066 8.5984 12.719 10.691 17.474 11.61 26.377 0.59148 5.733 0.53567 8.9304-0.17076 9.7815-0.57721 0.6955-1.5081 9.2693-2.0685 19.053-1.5251 26.621-1.521 26.599-6.215 32.984-2.6553 3.612-3.8502 4.3522-8.5847 5.3185-3.025 0.61737-6.918 1.7667-8.6511 2.554-4.0669 1.8476-10.551 1.6667-16.849-0.46994zm-69.5-5.1848c-3.025-0.32244-7.75-1.1556-10.5-1.8515s-6.3031-1.5605-7.8958-1.9213-3.3927-1.5526-4-2.6485-1.3631-2.2175-1.6795-2.4925c-0.51618-0.44861-2.828-4.6669-5.0219-9.1634-0.44637-0.91486-0.92299-3.5514-1.0591-5.8589s-0.79809-4.4068-1.471-4.665-1.5216-2.2342-1.886-4.3911-1.073-3.9217-1.5747-3.9217-0.9121-2.3103-0.9121-5.134c0-5.7478-1.6711-12.564-3.6608-14.932-0.72365-0.86117-1.5156-3.1112-1.76-5s-0.52285-3.4342-0.61889-3.4342-0.29289-1.35-0.43743-3-0.35187-3-0.46075-3-0.32013-1.8-0.46945-4c-0.25584-3.7697-3.0315-21.04-4.259-26.5-0.30913-1.375-0.68017-4.5907-0.82453-7.1459s-0.47039-5.0302-0.7245-5.5c-1.1926-2.2045-0.76982-15.482 0.57558-18.078 2.4089-4.6484 7.3994-8.3515 12.461-9.2468 2.5731-0.45509 7.3783-1.3709 10.678-2.0351 3.5838-0.72132 8.4162-0.93257 12-0.52458 3.3 0.37568 8.6102 0.86998 11.8 1.0985s6.5652 0.81684 7.5 1.3075 3.5862 1.2045 5.892 1.5864 4.7808 1.407 5.5 2.2782 2.4669 2.2985 3.8838 3.1718 4.0618 2.8447 5.8775 4.3806c3.3012 2.7927 3.3012 2.7927 3.5742 15 0.15016 6.714 0.81673 14.682 1.4813 17.707 0.66454 3.025 1.1639 9.4138 1.1097 14.197s0.34688 8.9726 0.89126 9.309 0.98977 3.9051 0.98977 7.9302c0 5.4635-0.40223 7.6524-1.5869 8.6355-1.3412 1.1131-1.4608 2.5642-0.77277 9.3724 0.44775 4.4305 0.71076 11.066 0.58445 14.745s0.22145 6.9683 0.77277 7.309 1.0024 1.9164 1.0024 3.5015 0.3538 3.1006 0.78622 3.3679c0.68604 0.42399 0.78982 5.2468 0.14271 6.6321-0.46123 0.98739-0.70014 2.5464-0.81358 5.309-0.0634 1.545-0.51436 2.5624-1.002 2.261s-1.4329 0.11013-2.1005 0.91452-2.6311 1.6993-4.3633 1.9887-4.4995 0.74106-6.1495 1.0038-4.2922 0.7606-5.8715 1.1065c-4.0934 0.89644-9.2874 1.0062-15.629 0.33032z"/>
</svg>
