<svg xmlns="http://www.w3.org/2000/svg" version="1.1" xmlns:xlink="http://www.w3.org/1999/xlink" xmlns:svgjs="http://svgjs.dev/svgjs" viewBox="0 0 11.273068558628824 2.8929396165036576"><g transform="matrix(1,0,0,1,2.2134368515790155,0.49987679067370394)"><g><path d=" M 0.542724609375 0.21166992187500022 L 0.526611328125 0.21166992187500022 Q 0.520751953125 0.19482421875000022 0.5079345703125 0.17358398437500022 Q 0.4951171875 0.15234375000000022 0.4742431640625 0.13366699218750022 Q 0.453369140625 0.11499023437500022 0.4237060546875 0.10253906250000022 Q 0.39404296875 0.09008789062500022 0.353759765625 0.09008789062500022 Q 0.31787109375 0.09008789062500022 0.2900390625 0.10107421875000022 Q 0.26220703125 0.11206054687500022 0.2435302734375 0.13183593750000022 Q 0.224853515625 0.15161132812500022 0.21533203125 0.17871093750000022 Q 0.205810546875 0.20581054687500022 0.205810546875 0.23876953125000022 Q 0.205810546875 0.2915039062500002 0.2354736328125 0.3394775390625002 Q 0.26513671875 0.3874511718750002 0.309814453125 0.4343261718750002 Q 0.3544921875 0.4812011718750002 0.406494140625 0.5280761718750002 Q 0.45849609375 0.5749511718750002 0.503173828125 0.6254882812500002 Q 0.5478515625 0.6760253906250002 0.5775146484375 0.7313232421875002 Q 0.607177734375 0.7866210937500002 0.607177734375 0.8503417968750002 Q 0.607177734375 0.8979492187500002 0.5906982421875 0.9459228515625002 Q 0.57421875 0.9938964843750002 0.539794921875 1.0319824218750002 Q 0.50537109375 1.0700683593750002 0.451171875 1.0938720703125002 Q 0.39697265625 1.1176757812500002 0.322265625 1.1176757812500002 Q 0.280517578125 1.1176757812500002 0.2427978515625 1.1099853515625002 Q 0.205078125 1.1022949218750002 0.1732177734375 1.0909423828125002 Q 0.141357421875 1.0795898437500002 0.1160888671875 1.0664062500000002 Q 0.0908203125 1.0532226562500002 0.07470703125 1.0422363281250002 L 0.091552734375 0.8803710937500002 L 0.10986328125 0.8803710937500002 Q 0.117919921875 0.9147949218750002 0.13623046875 0.9459228515625002 Q 0.154541015625 0.9770507812500002 0.1812744140625 1.0008544921875002 Q 0.2080078125 1.0246582031250002 0.242431640625 1.0389404296875002 Q 0.27685546875 1.0532226562500002 0.31787109375 1.0532226562500002 Q 0.355224609375 1.0532226562500002 0.3848876953125 1.0418701171875002 Q 0.41455078125 1.0305175781250002 0.435791015625 1.0103759765625002 Q 0.45703125 0.9902343750000002 0.4683837890625 0.9624023437500002 Q 0.479736328125 0.9345703125000002 0.479736328125 0.9016113281250002 Q 0.479736328125 0.8554687500000002 0.462890625 0.8162841796875002 Q 0.446044921875 0.7770996093750002 0.4185791015625 0.7419433593750002 Q 0.39111328125 0.7067871093750002 0.3563232421875 0.6738281250000002 Q 0.321533203125 0.6408691406250002 0.284912109375 0.6075439453125002 Q 0.248291015625 0.5742187500000002 0.2135009765625 0.5390625000000002 Q 0.1787109375 0.5039062500000002 0.1512451171875 0.4639892578125002 Q 0.123779296875 0.4240722656250002 0.10693359375 0.3782958984375002 Q 0.090087890625 0.3325195312500002 0.090087890625 0.2775878906250002 Q 0.090087890625 0.21972656250000022 0.1124267578125 0.17321777343750022 Q 0.134765625 0.12670898437500022 0.1717529296875 0.09375000000000022 Q 0.208740234375 0.06079101562500022 0.255615234375 0.04321289062500022 Q 0.302490234375 0.025634765625000222 0.352294921875 0.025634765625000222 Q 0.388916015625 0.025634765625000222 0.419677734375 0.03149414062500022 Q 0.450439453125 0.03735351562500022 0.4749755859375 0.04541015625000022 Q 0.49951171875 0.05346679687500022 0.517822265625 0.06152343750000022 Q 0.5361328125 0.06958007812500022 0.5478515625 0.07470703125000022 L 0.542724609375 0.21166992187500022 M 0.7331542968750001 0.7185058593750002 Q 0.7331542968750001 0.6357421875000002 0.7639160156250001 0.5650634765625002 Q 0.7946777343750001 0.4943847656250002 0.8485107421875001 0.4423828125000002 Q 0.9023437500000001 0.3903808593750002 0.9755859375000001 0.3610839843750002 Q 1.048828125 0.3317871093750002 1.133056640625 0.3317871093750002 Q 1.2158203125 0.3317871093750002 1.2886962890625 0.3592529296875002 Q 1.361572265625 0.3867187500000002 1.415771484375 0.4372558593750002 Q 1.469970703125 0.4877929687500002 1.5010986328125 0.5603027343750002 Q 1.5322265625 0.6328125000000002 1.5322265625 0.7229003906250002 Q 1.5322265625 0.7983398437500002 1.505859375 0.8679199218750002 Q 1.4794921875 0.9375000000000002 1.42822265625 0.9909667968750002 Q 1.376953125 1.0444335937500002 1.3026123046875 1.0762939453125002 Q 1.228271484375 1.1081542968750002 1.131591796875 1.1081542968750002 Q 1.049560546875 1.1081542968750002 0.9770507812500001 1.0810546875000002 Q 0.9045410156250001 1.0539550781250002 0.8503417968750001 1.0034179687500002 Q 0.7961425781250001 0.9528808593750002 0.7646484375000001 0.8807373046875002 Q 0.7331542968750001 0.8085937500000002 0.7331542968750001 0.7185058593750002 M 1.1484375 1.0546875000000002 Q 1.200439453125 1.0546875000000002 1.2440185546875 1.0341796875000002 Q 1.28759765625 1.0136718750000002 1.319091796875 0.9748535156250002 Q 1.3505859375 0.9360351562500002 1.3681640625 0.8803710937500002 Q 1.3857421875 0.8247070312500002 1.3857421875 0.7543945312500002 Q 1.3857421875 0.6752929687500002 1.368896484375 0.6075439453125002 Q 1.35205078125 0.5397949218750002 1.3187255859375 0.4903564453125002 Q 1.285400390625 0.4409179687500002 1.23486328125 0.4130859375000002 Q 1.184326171875 0.3852539062500002 1.116943359375 0.3852539062500002 Q 1.06494140625 0.3852539062500002 1.021728515625 0.4053955078125002 Q 0.9785156250000001 0.4255371093750002 0.9466552734375001 0.4636230468750002 Q 0.9147949218750001 0.5017089843750002 0.8972167968750001 0.5570068359375002 Q 0.8796386718750001 0.6123046875000002 0.8796386718750001 0.6826171875000002 Q 0.8796386718750001 0.7617187500000002 0.8968505859375001 0.8298339843750002 Q 0.9140625000000001 0.8979492187500002 0.9477539062500001 0.9481201171875002 Q 0.9814453125000001 0.9982910156250002 1.0316162109375 1.0264892578125002 Q 1.081787109375 1.0546875000000002 1.1484375 1.0546875000000002 M 1.699951171875 0.2863769531250002 Q 1.699951171875 0.22412109375000022 1.6981201171875 0.17761230468750022 Q 1.6962890625 0.13110351562500022 1.6937255859375 0.09741210937500022 Q 1.691162109375 0.06372070312500022 1.6871337890625 0.04101562500000022 Q 1.68310546875 0.018310546875000222 1.6787109375 0.002929687500000222 L 1.6787109375 2.220446049250313e-16 L 1.847900390625 2.220446049250313e-16 L 1.847900390625 0.002929687500000222 Q 1.843505859375 0.018310546875000222 1.83984375 0.04101562500000022 Q 1.836181640625 0.06372070312500022 1.833251953125 0.09741210937500022 Q 1.830322265625 0.13110351562500022 1.828857421875 0.17761230468750022 Q 1.827392578125 0.22412109375000022 1.827392578125 0.2863769531250002 L 1.827392578125 0.8085937500000002 Q 1.827392578125 0.8708496093750002 1.828857421875 0.9173583984375002 Q 1.830322265625 0.9638671875000002 1.833251953125 0.9975585937500002 Q 1.836181640625 1.0312500000000002 1.83984375 1.0539550781250002 Q 1.843505859375 1.0766601562500002 1.847900390625 1.0920410156250002 L 1.847900390625 1.0949707031250002 L 1.6787109375 1.0949707031250002 L 1.6787109375 1.0920410156250002 Q 1.68310546875 1.0766601562500002 1.6871337890625 1.0539550781250002 Q 1.691162109375 1.0312500000000002 1.6937255859375 0.9975585937500002 Q 1.6962890625 0.9638671875000002 1.6981201171875 0.9173583984375002 Q 1.699951171875 0.8708496093750002 1.699951171875 0.8085937500000002 L 1.699951171875 0.2863769531250002 M 2.06103515625 0.6313476562500002 Q 2.06103515625 0.5690917968750002 2.0592041015625 0.5225830078125002 Q 2.057373046875 0.4760742187500002 2.0548095703125 0.4423828125000002 Q 2.05224609375 0.4086914062500002 2.0482177734375 0.3859863281250002 Q 2.044189453125 0.3632812500000002 2.039794921875 0.3479003906250002 L 2.039794921875 0.3449707031250002 L 2.208984375 0.3449707031250002 L 2.208984375 0.3479003906250002 Q 2.20458984375 0.3632812500000002 2.200927734375 0.3859863281250002 Q 2.197265625 0.4086914062500002 2.1943359375 0.4423828125000002 Q 2.19140625 0.4760742187500002 2.18994140625 0.5225830078125002 Q 2.1884765625 0.5690917968750002 2.1884765625 0.6313476562500002 L 2.1884765625 0.8085937500000002 Q 2.1884765625 0.8708496093750002 2.18994140625 0.9173583984375002 Q 2.19140625 0.9638671875000002 2.1943359375 0.9975585937500002 Q 2.197265625 1.0312500000000002 2.200927734375 1.0539550781250002 Q 2.20458984375 1.0766601562500002 2.208984375 1.0920410156250002 L 2.208984375 1.0949707031250002 L 2.039794921875 1.0949707031250002 L 2.039794921875 1.0920410156250002 Q 2.044189453125 1.0766601562500002 2.0482177734375 1.0539550781250002 Q 2.05224609375 1.0312500000000002 2.0548095703125 0.9975585937500002 Q 2.057373046875 0.9638671875000002 2.0592041015625 0.9173583984375002 Q 2.06103515625 0.8708496093750002 2.06103515625 0.8085937500000002 L 2.06103515625 0.6313476562500002 M 2.045654296875 0.12304687500000022 Q 2.045654296875 0.10693359375000022 2.0518798828125 0.09265136718750022 Q 2.05810546875 0.07836914062500022 2.068359375 0.06774902343750022 Q 2.07861328125 0.05712890625000022 2.0928955078125 0.05090332031250022 Q 2.107177734375 0.04467773437500022 2.1240234375 0.04467773437500022 Q 2.140869140625 0.04467773437500022 2.1551513671875 0.05090332031250022 Q 2.16943359375 0.05712890625000022 2.1800537109375 0.06774902343750022 Q 2.190673828125 0.07836914062500022 2.1968994140625 0.09265136718750022 Q 2.203125 0.10693359375000022 2.203125 0.12304687500000022 Q 2.203125 0.15673828125000022 2.180419921875 0.17944335937500022 Q 2.15771484375 0.20214843750000022 2.1240234375 0.20214843750000022 Q 2.107177734375 0.20214843750000022 2.0928955078125 0.19592285156250022 Q 2.07861328125 0.18969726562500022 2.068359375 0.17907714843750022 Q 2.05810546875 0.16845703125000022 2.0518798828125 0.15417480468750022 Q 2.045654296875 0.13989257812500022 2.045654296875 0.12304687500000022 M 2.921630859375 0.6013183593750002 Q 2.921630859375 0.5046386718750002 2.8828125 0.4592285156250002 Q 2.843994140625 0.4138183593750002 2.77880859375 0.4138183593750002 Q 2.75537109375 0.4138183593750002 2.72607421875 0.4237060546875002 Q 2.69677734375 0.4335937500000002 2.666015625 0.4500732421875002 Q 2.63525390625 0.4665527343750002 2.6044921875 0.4885253906250002 Q 2.57373046875 0.5104980468750002 2.546630859375 0.5354003906250002 L 2.545166015625 0.6313476562500002 L 2.545166015625 0.8085937500000002 Q 2.545166015625 0.8708496093750002 2.546630859375 0.9173583984375002 Q 2.548095703125 0.9638671875000002 2.551025390625 0.9975585937500002 Q 2.553955078125 1.0312500000000002 2.5576171875 1.0539550781250002 Q 2.561279296875 1.0766601562500002 2.565673828125 1.0920410156250002 L 2.565673828125 1.0949707031250002 L 2.396484375 1.0949707031250002 L 2.396484375 1.0920410156250002 Q 2.40087890625 1.0766601562500002 2.4049072265625 1.0539550781250002 Q 2.408935546875 1.0312500000000002 2.4114990234375 0.9975585937500002 Q 2.4140625 0.9638671875000002 2.4158935546875 0.9173583984375002 Q 2.417724609375 0.8708496093750002 2.417724609375 0.8085937500000002 L 2.417724609375 0.6313476562500002 Q 2.417724609375 0.5690917968750002 2.4158935546875 0.5225830078125002 Q 2.4140625 0.4760742187500002 2.4114990234375 0.4423828125000002 Q 2.408935546875 0.4086914062500002 2.4049072265625 0.3859863281250002 Q 2.40087890625 0.3632812500000002 2.396484375 0.3479003906250002 L 2.396484375 0.3449707031250002 L 2.565673828125 0.3449707031250002 L 2.565673828125 0.3479003906250002 Q 2.559814453125 0.3662109375000002 2.5565185546875 0.3944091796875002 Q 2.55322265625 0.4226074218750002 2.549560546875 0.4680175781250002 Q 2.57958984375 0.4431152343750002 2.6143798828125 0.4182128906250002 Q 2.649169921875 0.3933105468750002 2.6865234375 0.3739013671875002 Q 2.723876953125 0.3544921875000002 2.7626953125 0.3424072265625002 Q 2.801513671875 0.3303222656250002 2.8388671875 0.3303222656250002 Q 2.89599609375 0.3303222656250002 2.9359130859375 0.3500976562500002 Q 2.975830078125 0.3698730468750002 3.0010986328125 0.4020996093750002 Q 3.0263671875 0.4343261718750002 3.0377197265625 0.4757080078125002 Q 3.049072265625 0.5170898437500002 3.049072265625 0.5595703125000002 L 3.049072265625 0.8085937500000002 Q 3.049072265625 0.8708496093750002 3.050537109375 0.9173583984375002 Q 3.052001953125 0.9638671875000002 3.054931640625 0.9975585937500002 Q 3.057861328125 1.0312500000000002 3.0615234375 1.0539550781250002 Q 3.065185546875 1.0766601562500002 3.069580078125 1.0920410156250002 L 3.069580078125 1.0949707031250002 L 2.900390625 1.0949707031250002 L 2.900390625 1.0920410156250002 Q 2.90478515625 1.0766601562500002 2.9088134765625 1.0539550781250002 Q 2.912841796875 1.0312500000000002 2.9154052734375 0.9975585937500002 Q 2.91796875 0.9638671875000002 2.9197998046875 0.9173583984375002 Q 2.921630859375 0.8708496093750002 2.921630859375 0.8085937500000002 L 2.921630859375 0.6013183593750002 M 3.596923828125 1.1081542968750002 Q 3.515625 1.1081542968750002 3.444580078125 1.0825195312500002 Q 3.37353515625 1.0568847656250002 3.32080078125 1.0074462890625002 Q 3.26806640625 0.9580078125000002 3.2376708984375 0.8851318359375002 Q 3.207275390625 0.8122558593750002 3.207275390625 0.7185058593750002 Q 3.207275390625 0.6357421875000002 3.235107421875 0.5650634765625002 Q 3.262939453125 0.4943847656250002 3.31201171875 0.4423828125000002 Q 3.361083984375 0.3903808593750002 3.4266357421875 0.3610839843750002 Q 3.4921875 0.3317871093750002 3.568359375 0.3317871093750002 Q 3.643798828125 0.3317871093750002 3.708251953125 0.3577880859375002 Q 3.772705078125 0.3837890625000002 3.8199462890625 0.4332275390625002 Q 3.8671875 0.4826660156250002 3.8946533203125 0.5555419921875002 Q 3.922119140625 0.6284179687500002 3.92431640625 0.7214355468750002 Q 3.841552734375 0.7199707031250002 3.7587890625 0.7192382812500002 Q 3.676025390625 0.7185058593750002 3.586669921875 0.7185058593750002 Q 3.52294921875 0.7185058593750002 3.4625244140625 0.7192382812500002 Q 3.402099609375 0.7199707031250002 3.353759765625 0.7214355468750002 Q 3.358154296875 0.7976074218750002 3.3775634765625 0.8591308593750002 Q 3.39697265625 0.9206542968750002 3.4310302734375 0.9642333984375002 Q 3.465087890625 1.0078125000000002 3.5137939453125 1.0312500000000002 Q 3.5625 1.0546875000000002 3.6240234375 1.0546875000000002 Q 3.66650390625 1.0546875000000002 3.7042236328125 1.0447998046875002 Q 3.741943359375 1.0349121093750002 3.772705078125 1.0173339843750002 Q 3.803466796875 0.9997558593750002 3.82763671875 0.9759521484375002 Q 3.851806640625 0.9521484375000002 3.86865234375 0.9243164062500002 L 3.87744140625 0.9287109375000002 L 3.8232421875 1.0590820312500002 Q 3.78369140625 1.0795898437500002 3.728759765625 1.0938720703125002 Q 3.673828125 1.1081542968750002 3.596923828125 1.1081542968750002 M 3.49951171875 0.6613769531250002 Q 3.57275390625 0.6613769531250002 3.6463623046875 0.6610107421875002 Q 3.719970703125 0.6606445312500002 3.780029296875 0.6584472656250002 Q 3.7734375 0.5947265625000002 3.755126953125 0.5441894531250002 Q 3.73681640625 0.4936523437500002 3.708251953125 0.4584960937500002 Q 3.6796875 0.4233398437500002 3.640869140625 0.4042968750000002 Q 3.60205078125 0.3852539062500002 3.55517578125 0.3852539062500002 Q 3.5126953125 0.3852539062500002 3.4771728515625 0.4039306640625002 Q 3.441650390625 0.4226074218750002 3.415283203125 0.4577636718750002 Q 3.388916015625 0.4929199218750002 3.372802734375 0.5438232421875002 Q 3.356689453125 0.5947265625000002 3.353759765625 0.6599121093750002 Q 3.38671875 0.6613769531250002 3.42333984375 0.6613769531250002 Q 3.4599609375 0.6613769531250002 3.49951171875 0.6613769531250002 M 4.469970703125 1.0920410156250002 Q 4.47802734375 1.0803222656250002 4.48828125 1.0572509765625002 Q 4.49853515625 1.0341796875000002 4.50439453125 0.9990234375000002 Q 4.512451171875 0.9477539062500002 4.5223388671875 0.8836669921875002 Q 4.5322265625 0.8195800781250002 4.5428466796875 0.7492675781250002 Q 4.553466796875 0.6789550781250002 4.5640869140625 0.6053466796875002 Q 4.57470703125 0.5317382812500002 4.5845947265625 0.4603271484375002 Q 4.594482421875 0.3889160156250002 4.6036376953125 0.3226318359375002 Q 4.61279296875 0.2563476562500002 4.6201171875 0.20141601562500022 Q 4.62744140625 0.14648437500000022 4.6322021484375 0.10583496093750022 Q 4.636962890625 0.06518554687500022 4.63916015625 0.04467773437500022 L 4.732177734375 0.04467773437500022 L 5.19287109375 0.9060058593750002 L 5.64990234375 0.04467773437500022 L 5.719482421875 0.04467773437500022 L 5.839599609375 0.9147949218750002 Q 5.8447265625 0.9558105468750002 5.8505859375 0.9851074218750002 Q 5.8564453125 1.0144042968750002 5.8623046875 1.0352783203125002 Q 5.8681640625 1.0561523437500002 5.8736572265625 1.0697021484375002 Q 5.879150390625 1.0832519531250002 5.88427734375 1.0920410156250002 L 5.88427734375 1.0949707031250002 L 5.69970703125 1.0949707031250002 L 5.69970703125 1.0920410156250002 Q 5.703369140625 1.0839843750000002 5.7066650390625 1.0656738281250002 Q 5.7099609375 1.0473632812500002 5.7099609375 1.0217285156250002 Q 5.7099609375 1.0122070312500002 5.709228515625 1.0023193359375002 Q 5.70849609375 0.9924316406250002 5.70703125 0.9807128906250002 L 5.614013671875 0.2790527343750002 L 5.181884765625 1.0920410156250002 L 5.13134765625 1.0861816406250002 L 4.6962890625 0.2717285156250002 Q 4.670654296875 0.4453125000000002 4.651611328125 0.5925292968750002 Q 4.6435546875 0.6555175781250002 4.635498046875 0.7181396484375002 Q 4.62744140625 0.7807617187500002 4.6212158203125 0.8349609375000002 Q 4.614990234375 0.8891601562500002 4.611328125 0.9305419921875002 Q 4.607666015625 0.9719238281250002 4.607666015625 0.9916992187500002 Q 4.607666015625 1.0166015625000002 4.609130859375 1.0356445312500002 Q 4.610595703125 1.0546875000000002 4.612060546875 1.0678710937500002 Q 4.6142578125 1.0832519531250002 4.616455078125 1.0949707031250002 L 4.469970703125 1.0949707031250002 L 4.469970703125 1.0920410156250002 M 5.994873046875 0.7185058593750002 Q 5.994873046875 0.6357421875000002 6.025634765625 0.5650634765625002 Q 6.056396484375 0.4943847656250002 6.1102294921875 0.4423828125000002 Q 6.1640625 0.3903808593750002 6.2373046875 0.3610839843750002 Q 6.310546875 0.3317871093750002 6.394775390625 0.3317871093750002 Q 6.4775390625 0.3317871093750002 6.5504150390625 0.3592529296875002 Q 6.623291015625 0.3867187500000002 6.677490234375 0.4372558593750002 Q 6.731689453125 0.4877929687500002 6.7628173828125 0.5603027343750002 Q 6.7939453125 0.6328125000000002 6.7939453125 0.7229003906250002 Q 6.7939453125 0.7983398437500002 6.767578125 0.8679199218750002 Q 6.7412109375 0.9375000000000002 6.68994140625 0.9909667968750002 Q 6.638671875 1.0444335937500002 6.5643310546875 1.0762939453125002 Q 6.489990234375 1.1081542968750002 6.393310546875 1.1081542968750002 Q 6.311279296875 1.1081542968750002 6.23876953125 1.0810546875000002 Q 6.166259765625 1.0539550781250002 6.112060546875 1.0034179687500002 Q 6.057861328125 0.9528808593750002 6.0263671875 0.8807373046875002 Q 5.994873046875 0.8085937500000002 5.994873046875 0.7185058593750002 M 6.41015625 1.0546875000000002 Q 6.462158203125 1.0546875000000002 6.5057373046875 1.0341796875000002 Q 6.54931640625 1.0136718750000002 6.580810546875 0.9748535156250002 Q 6.6123046875 0.9360351562500002 6.6298828125 0.8803710937500002 Q 6.6474609375 0.8247070312500002 6.6474609375 0.7543945312500002 Q 6.6474609375 0.6752929687500002 6.630615234375 0.6075439453125002 Q 6.61376953125 0.5397949218750002 6.5804443359375 0.4903564453125002 Q 6.547119140625 0.4409179687500002 6.49658203125 0.4130859375000002 Q 6.446044921875 0.3852539062500002 6.378662109375 0.3852539062500002 Q 6.32666015625 0.3852539062500002 6.283447265625 0.4053955078125002 Q 6.240234375 0.4255371093750002 6.2083740234375 0.4636230468750002 Q 6.176513671875 0.5017089843750002 6.158935546875 0.5570068359375002 Q 6.141357421875 0.6123046875000002 6.141357421875 0.6826171875000002 Q 6.141357421875 0.7617187500000002 6.1585693359375 0.8298339843750002 Q 6.17578125 0.8979492187500002 6.20947265625 0.9481201171875002 Q 6.2431640625 0.9982910156250002 6.2933349609375 1.0264892578125002 Q 6.343505859375 1.0546875000000002 6.41015625 1.0546875000000002 M 6.957275390625 0.6313476562500002 Q 6.957275390625 0.5690917968750002 6.9554443359375 0.5225830078125002 Q 6.95361328125 0.4760742187500002 6.9510498046875 0.4423828125000002 Q 6.948486328125 0.4086914062500002 6.9444580078125 0.3859863281250002 Q 6.9404296875 0.3632812500000002 6.93603515625 0.3479003906250002 L 6.93603515625 0.3449707031250002 L 7.105224609375 0.3449707031250002 L 7.105224609375 0.3479003906250002 Q 7.099365234375 0.3647460937500002 7.0953369140625 0.3889160156250002 Q 7.09130859375 0.4130859375000002 7.089111328125 0.4511718750000002 Q 7.1162109375 0.4284667968750002 7.1455078125 0.4064941406250002 Q 7.1748046875 0.3845214843750002 7.20556640625 0.3676757812500002 Q 7.236328125 0.3508300781250002 7.2681884765625 0.3405761718750002 Q 7.300048828125 0.3303222656250002 7.332275390625 0.3303222656250002 Q 7.35205078125 0.3303222656250002 7.36669921875 0.3321533203125002 Q 7.38134765625 0.3339843750000002 7.39306640625 0.3372802734375002 Q 7.40478515625 0.3405761718750002 7.414306640625 0.3446044921875002 Q 7.423828125 0.3486328125000002 7.4326171875 0.3522949218750002 L 7.396728515625 0.4921875000000002 L 7.38427734375 0.4892578125000002 Q 7.37548828125 0.4570312500000002 7.351318359375 0.4376220703125002 Q 7.3271484375 0.4182128906250002 7.285400390625 0.4182128906250002 Q 7.2626953125 0.4182128906250002 7.23779296875 0.4262695312500002 Q 7.212890625 0.4343261718750002 7.187255859375 0.4486083984375002 Q 7.16162109375 0.4628906250000002 7.135986328125 0.4815673828125002 Q 7.1103515625 0.5002441406250002 7.086181640625 0.5207519531250002 Q 7.084716796875 0.5419921875000002 7.084716796875 0.5668945312500002 Q 7.084716796875 0.5917968750000002 7.084716796875 0.6196289062500002 L 7.084716796875 0.8085937500000002 Q 7.084716796875 0.8708496093750002 7.086181640625 0.9173583984375002 Q 7.087646484375 0.9638671875000002 7.090576171875 0.9975585937500002 Q 7.093505859375 1.0312500000000002 7.09716796875 1.0539550781250002 Q 7.100830078125 1.0766601562500002 7.105224609375 1.0920410156250002 L 7.105224609375 1.0949707031250002 L 6.93603515625 1.0949707031250002 L 6.93603515625 1.0920410156250002 Q 6.9404296875 1.0766601562500002 6.9444580078125 1.0539550781250002 Q 6.948486328125 1.0312500000000002 6.9510498046875 0.9975585937500002 Q 6.95361328125 0.9638671875000002 6.9554443359375 0.9173583984375002 Q 6.957275390625 0.8708496093750002 6.957275390625 0.8085937500000002 L 6.957275390625 0.6313476562500002 M 7.872802734375 1.1081542968750002 Q 7.79150390625 1.1081542968750002 7.720458984375 1.0825195312500002 Q 7.6494140625 1.0568847656250002 7.5966796875 1.0074462890625002 Q 7.5439453125 0.9580078125000002 7.5135498046875 0.8851318359375002 Q 7.483154296875 0.8122558593750002 7.483154296875 0.7185058593750002 Q 7.483154296875 0.6357421875000002 7.510986328125 0.5650634765625002 Q 7.538818359375 0.4943847656250002 7.587890625 0.4423828125000002 Q 7.636962890625 0.3903808593750002 7.7025146484375 0.3610839843750002 Q 7.76806640625 0.3317871093750002 7.84423828125 0.3317871093750002 Q 7.919677734375 0.3317871093750002 7.984130859375 0.3577880859375002 Q 8.048583984375 0.3837890625000002 8.0958251953125 0.4332275390625002 Q 8.14306640625 0.4826660156250002 8.1705322265625 0.5555419921875002 Q 8.197998046875 0.6284179687500002 8.2001953125 0.7214355468750002 Q 8.117431640625 0.7199707031250002 8.03466796875 0.7192382812500002 Q 7.951904296875 0.7185058593750002 7.862548828125 0.7185058593750002 Q 7.798828125 0.7185058593750002 7.7384033203125 0.7192382812500002 Q 7.677978515625 0.7199707031250002 7.629638671875 0.7214355468750002 Q 7.634033203125 0.7976074218750002 7.6534423828125 0.8591308593750002 Q 7.6728515625 0.9206542968750002 7.7069091796875 0.9642333984375002 Q 7.740966796875 1.0078125000000002 7.7896728515625 1.0312500000000002 Q 7.83837890625 1.0546875000000002 7.89990234375 1.0546875000000002 Q 7.9423828125 1.0546875000000002 7.9801025390625 1.0447998046875002 Q 8.017822265625 1.0349121093750002 8.048583984375 1.0173339843750002 Q 8.079345703125 0.9997558593750002 8.103515625 0.9759521484375002 Q 8.127685546875 0.9521484375000002 8.14453125 0.9243164062500002 L 8.1533203125 0.9287109375000002 L 8.09912109375 1.0590820312500002 Q 8.0595703125 1.0795898437500002 8.004638671875 1.0938720703125002 Q 7.94970703125 1.1081542968750002 7.872802734375 1.1081542968750002 M 7.775390625 0.6613769531250002 Q 7.8486328125 0.6613769531250002 7.9222412109375 0.6610107421875002 Q 7.995849609375 0.6606445312500002 8.055908203125 0.6584472656250002 Q 8.04931640625 0.5947265625000002 8.031005859375 0.5441894531250002 Q 8.0126953125 0.4936523437500002 7.984130859375 0.4584960937500002 Q 7.95556640625 0.4233398437500002 7.916748046875 0.4042968750000002 Q 7.8779296875 0.3852539062500002 7.8310546875 0.3852539062500002 Q 7.78857421875 0.3852539062500002 7.7530517578125 0.4039306640625002 Q 7.717529296875 0.4226074218750002 7.691162109375 0.4577636718750002 Q 7.664794921875 0.4929199218750002 7.648681640625 0.5438232421875002 Q 7.632568359375 0.5947265625000002 7.629638671875 0.6599121093750002 Q 7.66259765625 0.6613769531250002 7.69921875 0.6613769531250002 Q 7.73583984375 0.6613769531250002 7.775390625 0.6613769531250002 M 8.361328125 0.2863769531250002 Q 8.361328125 0.22412109375000022 8.3594970703125 0.17761230468750022 Q 8.357666015625 0.13110351562500022 8.3551025390625 0.09741210937500022 Q 8.3525390625 0.06372070312500022 8.3485107421875 0.04101562500000022 Q 8.344482421875 0.018310546875000222 8.340087890625 0.002929687500000222 L 8.340087890625 2.220446049250313e-16 L 8.50927734375 2.220446049250313e-16 L 8.50927734375 0.002929687500000222 Q 8.5048828125 0.018310546875000222 8.501220703125 0.04101562500000022 Q 8.49755859375 0.06372070312500022 8.49462890625 0.09741210937500022 Q 8.49169921875 0.13110351562500022 8.490234375 0.17761230468750022 Q 8.48876953125 0.22412109375000022 8.48876953125 0.2863769531250002 L 8.48876953125 0.8085937500000002 Q 8.48876953125 0.8708496093750002 8.490234375 0.9173583984375002 Q 8.49169921875 0.9638671875000002 8.49462890625 0.9975585937500002 Q 8.49755859375 1.0312500000000002 8.501220703125 1.0539550781250002 Q 8.5048828125 1.0766601562500002 8.50927734375 1.0920410156250002 L 8.50927734375 1.0949707031250002 L 8.340087890625 1.0949707031250002 L 8.340087890625 1.0920410156250002 Q 8.344482421875 1.0766601562500002 8.3485107421875 1.0539550781250002 Q 8.3525390625 1.0312500000000002 8.3551025390625 0.9975585937500002 Q 8.357666015625 0.9638671875000002 8.3594970703125 0.9173583984375002 Q 8.361328125 0.8708496093750002 8.361328125 0.8085937500000002 L 8.361328125 0.2863769531250002" fill="#000000" fill-rule="nonzero"></path></g><g><path d=" M 0.08125 1.8931860351562497 L 0.08125 1.4556860351562497 L 0.225 1.4556860351562497 Q 0.276875 1.4556860351562497 0.32 1.4722485351562498 Q 0.36312500000000003 1.4888110351562498 0.3940625 1.5178735351562498 Q 0.425 1.5469360351562498 0.4421875 1.5869360351562496 Q 0.45937500000000003 1.6269360351562496 0.45937500000000003 1.6731860351562498 Q 0.45937500000000003 1.7213110351562497 0.4415625 1.7616235351562497 Q 0.42375 1.8019360351562497 0.3928125 1.8313110351562498 Q 0.361875 1.8606860351562498 0.320625 1.8769360351562496 Q 0.279375 1.8931860351562497 0.2325 1.8931860351562497 L 0.08125 1.8931860351562497 M 0.138125 1.8656860351562496 L 0.206875 1.8656860351562496 Q 0.258125 1.8656860351562496 0.2940625 1.8484985351562497 Q 0.33 1.8313110351562498 0.353125 1.8038110351562497 Q 0.37625000000000003 1.7763110351562497 0.386875 1.7422485351562498 Q 0.3975 1.7081860351562497 0.3975 1.6744360351562497 Q 0.3975 1.6369360351562499 0.385 1.6022485351562497 Q 0.3725 1.5675610351562497 0.3484375 1.5409985351562496 Q 0.324375 1.5144360351562498 0.28875 1.4988110351562498 Q 0.253125 1.4831860351562498 0.206875 1.4831860351562498 L 0.138125 1.4831860351562498 L 0.138125 1.8656860351562496 M 0.8331341552734375 1.7375610351562498 Q 0.8331341552734375 1.7700610351562498 0.8218841552734375 1.7997485351562497 Q 0.8106341552734375 1.8294360351562498 0.7896966552734375 1.8519360351562497 Q 0.7687591552734375 1.8744360351562497 0.7390716552734375 1.8875610351562497 Q 0.7093841552734375 1.9006860351562498 0.6725091552734375 1.9006860351562498 Q 0.6350091552734375 1.9006860351562498 0.6046966552734375 1.8872485351562498 Q 0.5743841552734374 1.8738110351562498 0.5534466552734375 1.8513110351562496 Q 0.5325091552734375 1.8288110351562497 0.5209466552734375 1.7991235351562498 Q 0.5093841552734375 1.7694360351562497 0.5093841552734375 1.7375610351562498 Q 0.5093841552734375 1.7050610351562496 0.5209466552734375 1.6753735351562498 Q 0.5325091552734375 1.6456860351562497 0.5534466552734375 1.6231860351562497 Q 0.5743841552734374 1.6006860351562497 0.6046966552734375 1.5872485351562498 Q 0.6350091552734375 1.5738110351562498 0.6725091552734375 1.5738110351562498 Q 0.7093841552734375 1.5738110351562498 0.7390716552734375 1.5872485351562498 Q 0.7687591552734375 1.6006860351562497 0.7896966552734375 1.6231860351562497 Q 0.8106341552734375 1.6456860351562497 0.8218841552734375 1.6753735351562498 Q 0.8331341552734375 1.7050610351562496 0.8331341552734375 1.7375610351562498 M 0.7737591552734375 1.7375610351562498 Q 0.7737591552734375 1.6938110351562496 0.7643841552734375 1.6666235351562497 Q 0.7550091552734375 1.6394360351562498 0.7400091552734376 1.6244360351562497 Q 0.7250091552734375 1.6094360351562498 0.7068841552734375 1.6041235351562497 Q 0.6887591552734376 1.5988110351562497 0.6718841552734375 1.5988110351562497 Q 0.6550091552734375 1.5988110351562497 0.6368841552734374 1.6041235351562497 Q 0.6187591552734375 1.6094360351562498 0.6034466552734374 1.6244360351562497 Q 0.5881341552734375 1.6394360351562498 0.5784466552734375 1.6666235351562497 Q 0.5687591552734375 1.6938110351562496 0.5687591552734375 1.7375610351562498 Q 0.5687591552734375 1.7806860351562497 0.5784466552734375 1.8078735351562498 Q 0.5881341552734375 1.8350610351562497 0.6034466552734374 1.8500610351562496 Q 0.6187591552734375 1.8650610351562498 0.6368841552734374 1.8703735351562498 Q 0.6550091552734375 1.8756860351562497 0.6718841552734375 1.8756860351562497 Q 0.6887591552734376 1.8756860351562497 0.7068841552734375 1.8703735351562498 Q 0.7250091552734375 1.8650610351562498 0.7400091552734376 1.8500610351562496 Q 0.7550091552734375 1.8350610351562497 0.7643841552734375 1.8078735351562498 Q 0.7737591552734375 1.7806860351562497 0.7737591552734375 1.7375610351562498 M 0.9143722534179688 1.5806860351562497 L 0.9143722534179688 1.7838110351562497 Q 0.9143722534179688 1.7950610351562497 0.9165597534179688 1.8147485351562498 Q 0.9187472534179687 1.8344360351562496 0.9293722534179687 1.8534985351562496 Q 0.9399972534179688 1.8725610351562498 0.9628097534179687 1.8866235351562497 Q 0.9856222534179687 1.9006860351562498 1.0268722534179688 1.9006860351562498 Q 1.0449972534179688 1.9013110351562497 1.0665597534179687 1.8934985351562497 Q 1.0881222534179686 1.8856860351562497 1.1099972534179687 1.8638110351562498 L 1.1199972534179687 1.8538110351562498 L 1.1224972534179687 1.8538110351562498 L 1.1224972534179687 1.8931860351562497 L 1.1756222534179688 1.8931860351562497 L 1.1756222534179688 1.5806860351562497 L 1.1224972534179687 1.5806860351562497 L 1.1224972534179687 1.7744360351562498 Q 1.1224972534179687 1.7988110351562496 1.1156222534179687 1.8163110351562497 Q 1.1087472534179688 1.8338110351562498 1.0974972534179688 1.8453735351562497 Q 1.0862472534179688 1.8569360351562498 1.0712472534179687 1.8625610351562498 Q 1.0562472534179688 1.8681860351562498 1.0399972534179687 1.8681860351562498 Q 1.0137472534179688 1.8681860351562498 0.9990597534179688 1.8578735351562496 Q 0.9843722534179687 1.8475610351562497 0.9771847534179687 1.8338110351562498 Q 0.9699972534179687 1.8200610351562498 0.9687472534179687 1.8066235351562496 Q 0.9674972534179688 1.7931860351562496 0.9674972534179688 1.7869360351562498 L 0.9674972534179688 1.5806860351562497 L 0.9143722534179688 1.5806860351562497 M 1.3431182861328126 1.4556860351562497 L 1.2899932861328125 1.4556860351562497 L 1.2899932861328125 1.8931860351562497 L 1.3431182861328126 1.8931860351562497 L 1.3431182861328126 1.4556860351562497 M 1.5706015014648438 1.5738110351562498 Q 1.6162265014648438 1.5738110351562498 1.6412265014648437 1.5866235351562497 Q 1.6662265014648439 1.5994360351562498 1.6777890014648438 1.6200610351562497 Q 1.6893515014648437 1.6406860351562498 1.6912265014648438 1.6675610351562498 Q 1.6931015014648438 1.6944360351562497 1.6931015014648438 1.7225610351562497 L 1.6931015014648438 1.8931860351562497 L 1.6424765014648437 1.8931860351562497 L 1.6424765014648437 1.8625610351562498 Q 1.6243515014648438 1.8800610351562497 1.5962265014648438 1.8903735351562496 Q 1.5681015014648438 1.9006860351562498 1.5399765014648437 1.9006860351562498 Q 1.5131015014648437 1.9006860351562498 1.4924765014648438 1.8913110351562497 Q 1.4718515014648437 1.8819360351562497 1.4581015014648437 1.8669360351562496 Q 1.4443515014648438 1.8519360351562497 1.4374765014648438 1.8331860351562497 Q 1.4306015014648437 1.8144360351562496 1.4306015014648437 1.7950610351562497 Q 1.4306015014648437 1.7750610351562497 1.4381015014648437 1.7550610351562497 Q 1.4456015014648438 1.7350610351562497 1.4606015014648437 1.7191235351562497 Q 1.4756015014648438 1.7031860351562498 1.4974765014648437 1.6931860351562498 Q 1.5193515014648438 1.6831860351562498 1.5474765014648437 1.6831860351562498 Q 1.5756015014648437 1.6831860351562498 1.6009140014648438 1.6941235351562498 Q 1.6262265014648438 1.7050610351562496 1.6424765014648437 1.7250610351562496 L 1.6424765014648437 1.6981860351562497 Q 1.6424765014648437 1.6469360351562496 1.6271640014648439 1.6219360351562497 Q 1.6118515014648438 1.5969360351562498 1.5712265014648437 1.5969360351562498 Q 1.5537265014648438 1.5969360351562498 1.5406015014648438 1.6013110351562498 Q 1.5274765014648437 1.6056860351562496 1.5171640014648438 1.6134985351562496 Q 1.5068515014648438 1.6213110351562496 1.4981015014648438 1.6328735351562498 Q 1.4893515014648437 1.6444360351562497 1.4806015014648437 1.6588110351562497 L 1.4481015014648437 1.6263110351562498 Q 1.4568515014648438 1.6169360351562498 1.4665390014648438 1.6075610351562497 Q 1.4762265014648437 1.5981860351562498 1.4902890014648438 1.5906860351562497 Q 1.5043515014648436 1.5831860351562497 1.5237265014648438 1.5784985351562497 Q 1.5431015014648437 1.5738110351562498 1.5706015014648438 1.5738110351562498 M 1.6424765014648437 1.7694360351562497 Q 1.6393515014648439 1.7619360351562496 1.6334140014648437 1.7519360351562496 Q 1.6274765014648438 1.7419360351562498 1.6181015014648437 1.7325610351562497 Q 1.6087265014648438 1.7231860351562498 1.5956015014648437 1.7166235351562498 Q 1.5824765014648436 1.7100610351562497 1.5643515014648437 1.7100610351562497 Q 1.5462265014648438 1.7100610351562497 1.5312265014648438 1.7172485351562496 Q 1.5162265014648437 1.7244360351562498 1.5059140014648438 1.7359985351562497 Q 1.4956015014648438 1.7475610351562496 1.4899765014648438 1.7631860351562496 Q 1.4843515014648438 1.7788110351562496 1.4843515014648438 1.7956860351562498 Q 1.4843515014648438 1.8156860351562498 1.4915390014648438 1.8303735351562498 Q 1.4987265014648437 1.8450610351562498 1.5099765014648439 1.8553735351562497 Q 1.5212265014648438 1.8656860351562496 1.5349765014648438 1.8706860351562498 Q 1.5487265014648437 1.8756860351562497 1.5612265014648439 1.8756860351562497 Q 1.5731015014648437 1.8756860351562497 1.5852890014648438 1.8713110351562496 Q 1.5974765014648438 1.8669360351562496 1.6084140014648438 1.8591235351562496 Q 1.6193515014648439 1.8513110351562496 1.6281015014648437 1.8406860351562497 Q 1.6368515014648437 1.8300610351562496 1.6424765014648437 1.8175610351562497 L 1.6424765014648437 1.7694360351562497" fill="#525252" fill-rule="nonzero"></path></g><g clip-path="url(#SvgjsClipPath1001)"><g clip-path="url(#SvgjsClipPath1000389dccac-07a8-43d0-ad7c-c007e0fe73d5)"><path d=" M -1.0122748255809193 1.241998143441676 C -1.0152025609073767 1.24230249493362 -1.0180772726602436 1.2410590250420266 -1.0198603088043594 1.2387170075183487 C -1.0234441310127478 1.234868199369335 -1.0261527334956522 1.2302895106509333 -1.0278002004376359 1.225295218061954 C -1.0342404339118327 1.2065332750993478 -1.0351649044491054 1.1863179215053385 -1.0304639797760857 1.1670464810258923 C -1.0275022625050065 1.1529146813100926 -1.0226089221533994 1.1392579531275429 -1.0159218024434324 1.1264610018349175 C -0.997995851977742 1.092548827436647 -0.9695958186682669 1.0653337160958194 -0.9349509133250998 1.0488684251393823 C -0.9136794539291873 1.0390560563952895 -0.8907835239589071 1.0332429394427807 -0.8674075299278375 1.0317196311150267 C -0.8145385507395493 1.0286782033265522 -0.7622113894617674 1.043743457789141 -0.7190533128231369 1.0744315607650219 C -0.6715225720522979 1.107151459763492 -0.6361674750387514 1.1588436412175749 -0.6176010473750488 1.217035215606888 C -0.6081629191644553 1.2466697765835997 -0.60281456213452 1.2774540811424528 -0.6017041153144713 1.3085354642561755 C -0.6006403523073947 1.3405084204305562 -0.6035881483117838 1.3724886463986954 -0.6104785815902665 1.4037284198853737 C -0.6174855909513006 1.4356707532750534 -0.6282079696580807 1.466682965083086 -0.6424267848576413 1.496131838353278 C -0.6569913574130382 1.526117266129142 -0.6747580397374535 1.5544385460329062 -0.6954165583929006 1.5806010814525786 C -0.7159553059562545 1.606644491250389 -0.7392810906585319 1.6303632240884185 -0.7649777832203614 1.651334140538369 C -0.7895449543919466 1.6714661274881355 -0.8159062964355182 1.6893031334059823 -0.8437307616448778 1.7046211598367156 C -0.8955995037294529 1.7327675614595006 -0.9513861311051006 1.752998257993461 -1.0092394890386087 1.7646419389219623 C -1.0608969770739765 1.7750972389038016 -1.1136652546292853 1.7790074228134904 -1.1662995772430071 1.7762802537998255 C -1.2117336804386563 1.7739412287555534 -1.2567488504984659 1.7663920293795237 -1.3004603091602158 1.753781036039872 C -1.3362377771941962 1.7434367584471275 -1.3708744061288873 1.7294920918574972 -1.4038389558037068 1.7121609129427604 L -1.424503252603055 1.7006769372111166 C -1.4309626316855621 1.6966755519387662 -1.4370790348875826 1.692674166666417 -1.4429153411205382 1.6888614181283357 C -1.4535334971009881 1.6818857820892623 -1.4637884928594118 1.6743724475224389 -1.4736402637475092 1.666350767839029 C -1.487475740508732 1.6554638911494288 -1.499988178893164 1.6429936597022043 -1.510921741956458 1.6291950474529266 C -1.5182557095342073 1.6194202348590434 -1.520896623813958 1.6130637485406834 -1.5186958619141657 1.6103313740261354 C -1.5164093560442518 1.607438944100694 -1.509298322788819 1.6082163560964655 -1.4982144855844104 1.6121377136633677 C -1.4872907037908958 1.616276289287912 -1.4716681524347077 1.6226499244002974 -1.452209987481739 1.6309042105906872 C -1.4422122405655395 1.634602633835273 -1.431717178622634 1.639592932896361 -1.4195586836593659 1.6436343320214346 L -1.4009179445548912 1.6504938496311774 L -1.380539460989282 1.6569875263017333 C -1.3488699528615036 1.6667596962636366 -1.316539405306129 1.6742443975944061 -1.2837973976332164 1.6793838512975419 C -1.199862337442639 1.6924947296956239 -1.1141322458506489 1.6882928463772966 -1.031881613415433 1.6670367196000042 C -0.984421995805194 1.6547638258700021 -0.938836553363183 1.6361397076190607 -0.8963604105056244 1.6116689799600337 C -0.8521207503318972 1.5861870874257789 -0.8130077261134873 1.5526973600285396 -0.781017621897809 1.5129090751737702 C -0.7652439133228879 1.4929254017591929 -0.7515708421656391 1.4713699142651437 -0.7402149246491923 1.4485839487884142 C -0.7293927485204748 1.4267076123456581 -0.7210559630829405 1.40368750057863 -0.7153606058432256 1.3799544751029427 C -0.7099272423585072 1.3574579633862562 -0.7071946478839488 1.3343940216799928 -0.7072206449463314 1.311250689976698 C -0.7073181231476307 1.2894588006473169 -0.7102504066174211 1.2677722008831933 -0.7159436648400539 1.24673692685707 C -0.7211519561628059 1.2272828237868165 -0.7291418866007238 1.208682650784232 -0.7396661632404125 1.1915120938339725 C -0.7446506495931366 1.18356793053963 -0.7502062680054224 1.1759967765616766 -0.7562890609146877 1.1688585369277988 C -0.7840964809289058 1.1371556389254998 -0.8232807187184984 1.1176929155114 -0.8653439583802401 1.1146912128695339 C -0.9248960037621525 1.1105526372449896 -0.9667504937109298 1.151881230843686 -0.9841679521750004 1.1832863889669565 C -0.9914771319663765 1.1961418048173373 -0.9972501422484046 1.2098116945679018 -1.0013681925814288 1.2240147747748005 C -1.0027344919900731 1.2283121358740556 -1.0043863597462073 1.2325134180283852 -1.0063127615251184 1.2365905570593294 C -1.0074349894366508 1.2391630157857516 -1.0096053757670505 1.2411315541065175 -1.0122748255809193 1.241998143441676 Z" fill="#4d70a6" transform="matrix(1,0,0,1,0,0)" fill-rule="nonzero"></path></g><g clip-path="url(#SvgjsClipPath1000389dccac-07a8-43d0-ad7c-c007e0fe73d5)"><path d=" M -1.5708339120128818 1.5621089652296478 C -1.5761671869544565 1.5671106968200852 -1.5872110103061414 1.5646927168626508 -1.6040625585674082 1.554677821152428 C -1.6141446704451599 1.5484095613656337 -1.623533722372329 1.5410899331285344 -1.6320722554738558 1.53284169009475 L -1.6401379049299778 1.5254105460175282 C -1.6429045770325739 1.5228096455905007 -1.6453511383133819 1.5198314716949368 -1.6480777965632545 1.5168361490053504 C -1.6534129769263872 1.510822638567477 -1.6590339705232593 1.5042965697304302 -1.6649407773538707 1.4972579424942114 C -1.6922011909779195 1.461706957205433 -1.713912604744588 1.4222274543562161 -1.7293344989153263 1.3801659768959116 C -1.7502880861385026 1.323134281785966 -1.760580679397744 1.2627369880201873 -1.7596992968677854 1.201984290718182 C -1.7598650685433541 1.1934098937060031 -1.7587904107844945 1.184778334047077 -1.7583159608164873 1.1759981515066065 C -1.7579920391515829 1.1716004385501382 -1.75766621206512 1.16718176595653 -1.757338479557099 1.1627421337257804 C -1.7571555590875059 1.1605242230319637 -1.7570355175293353 1.1582891635441226 -1.7567668530896206 1.1560541040562813 L -1.7557493579775088 1.1493660743867822 C -1.7543279134950454 1.1404067822198347 -1.7528912256401161 1.1313503135534175 -1.7514392944127206 1.1221966683875286 C -1.7507538593213778 1.1175720244133212 -1.7497995311576569 1.1129912492274603 -1.748581162075328 1.1084776331680417 L -1.745151403270457 1.0946728539784374 C -1.7403470942256698 1.07570609424961 -1.7343911347750511 1.0570498148550933 -1.727316657485127 1.0388077993117601 C -1.7234467463002974 1.029570315597309 -1.7190623712947373 1.0204014270589536 -1.7148037541120222 1.0110781993743783 C -1.7125972759475552 1.006470890046501 -1.7105622857233316 1.0016749439843564 -1.7081500220305723 0.9971648111559508 L -1.7007188779533515 0.9836744265234583 C -1.6798265744669085 0.9471807367695224 -1.654726509393245 0.9132631299180892 -1.6259329872131367 0.8826165833379317 C -1.596386813396345 0.8513618687855555 -1.5641359159597197 0.8227798456836537 -1.5295567647962571 0.7972041565672879 C -1.5122136177729593 0.78420155985371 -1.494354101507372 0.7718029817741008 -1.4759782159994959 0.7600084223284614 C -1.4576461551874598 0.7480842942168594 -1.438902523318839 0.7368175365428578 -1.4200731474800965 0.7259909312488143 C -1.3823458006265141 0.704211962837883 -1.343783879130413 0.6841421575647113 -1.305570649779474 0.6642838540845084 C -1.2291156097542215 0.6245329495360518 -1.1535180094301873 0.585748093717634 -1.0888899210170655 0.5360966187524497 C -1.0576334563860743 0.5126301962713655 -1.028981897574959 0.4858815869552289 -1.0034260478643522 0.45630899642179834 C -0.9917540088315765 0.4424119804465646 -0.9810144516455058 0.4277577553672782 -0.9712777753333602 0.4124423813074971 L -0.9644182577236176 0.4011470423101207 L -0.958204678022126 0.38965735031380283 C -0.9559524697402606 0.3858274529816972 -0.9545176873068896 0.3821061646784116 -0.9526599012875844 0.3783620113164273 C -0.9507920124508144 0.3746706110827372 -0.9491205318003819 0.3708830664581852 -0.9476524534324725 0.36701522593697844 C -0.9412851649423096 0.35180770598309996 -0.936381316497494 0.3360281093480262 -0.9330073833356726 0.3198903399580485 C -0.9295085439585807 0.3042222593801741 -0.9275537644477712 0.2882489729367998 -0.927171077102717 0.27219954377631483 C -0.9265757098346102 0.2569431926488598 -0.9276085689174629 0.24166684272585015 -0.9302521437624263 0.2266294817889281 C -0.9325139922632739 0.21251573256007594 -0.9364398403397675 0.19871961932938698 -0.9419476212870369 0.18552953877722192 C -0.9469676611480864 0.1731030981682267 -0.9535402369357868 0.16136196555857962 -0.9615086790041518 0.15058601282026007 C -0.9652100727409914 0.14552113060172925 -0.9692898196011336 0.14074390945402168 -0.9737129040848183 0.13629535113329722 C -0.9759536798373339 0.13406600791013115 -0.9781430092077767 0.13178521830489168 -0.9803151897841951 0.12948156364095256 C -0.9828532112997996 0.1275151685928268 -0.9853569352273557 0.12551066511353598 -0.9878263615668629 0.1234680532030791 C -0.9928199602229095 0.11935663920636821 -0.9980977778894073 0.1156031423860038 -1.0036204008632943 0.11223559311712639 C -1.0063189287895598 0.11038600655730849 -1.0091658049226557 0.10876277093810122 -1.0121319189640499 0.10738248440823234 L -1.0207977762110239 0.10272372869828264 C -1.0269084631483691 0.10026573488812518 -1.0329162573215687 0.09751049531487849 -1.0390898231703365 0.09529258462106174 L -1.0485388086777565 0.09237728963692157 C -1.0516294061962586 0.09124660828020312 -1.0548092227374128 0.09037660435583406 -1.0580449568319243 0.0897763892098932 C -1.0829007892880806 0.08379563689787942 -1.1086643360887134 0.08257563607445181 -1.1339741005070962 0.08618085872945505 C -1.1569075090028649 0.08937230801803653 -1.178953335823952 0.09719025295635386 -1.1987736768604615 0.10916024272209082 C -1.2170259576334113 0.12049802836695622 -1.2329371841482355 0.13522755525403288 -1.2456470471937005 0.15255240786838584 C -1.2578480499473765 0.16918520239825582 -1.2674273350759522 0.18758999916269836 -1.274051166362708 0.20712558671855918 C -1.285656993769455 0.24030466736266648 -1.2900572017830152 0.27557648536330503 -1.2869584919983728 0.3105899773321726 C -1.2846817828630206 0.3340675448951994 -1.280043387392703 0.3572556920275732 -1.2731136989560432 0.3798025100144715 C -1.2679690607487366 0.3959338089267156 -1.2659340705245132 0.40641743834027144 -1.270038348561009 0.40996723870331325 C -1.272136217696655 0.4117850108698949 -1.275628855412949 0.4117507132818469 -1.2806134382093617 0.40973858811632285 C -1.2835939446527358 0.4084758522830219 -1.2864623015555954 0.40696327207624755 -1.2891878352215393 0.4052170227585661 C -1.2929627008755062 0.4029987312511494 -1.2964921508819518 0.40038709153411045 -1.299717194752494 0.39742575400683416 C -1.3209394802192778 0.3775236757655443 -1.33722106843582 0.3529407872813477 -1.3472650843173573 0.32563518595620744 C -1.3641839321064904 0.28141589488239105 -1.3691370288757228 0.23351558444649767 -1.3616243411804176 0.18676996821165046 C -1.357234146823488 0.15649857962862773 -1.3478195435516025 0.1271728535740517 -1.3337689834201891 0.10000278671308488 C -1.3172759915826087 0.06811270597570186 -1.2944527427717694 0.039921111611946905 -1.26669433372626 0.01715124651674925 C -1.2356140736132115 -0.007962820620702818 -1.1994984695258162 -0.02610249977611752 -1.1607948143611888 -0.03603859628212755 C -1.119392509845992 -0.04675824783846239 -1.0762610720032648 -0.049067402780200026 -1.0339509012277048 -0.0428295187157726 C -1.0284103706608507 -0.042190169339052355 -1.022912969572277 -0.04122048886926139 -1.0174880589643234 -0.039925656260981754 L -1.0009623377895194 -0.03629582819249272 C -0.9899871096139319 -0.03343769585510015 -0.9790461790263929 -0.029722123816489702 -0.9680309369980818 -0.026006551777880228 L -0.951791029057017 -0.019147034168137286 C -0.9462624476974039 -0.016930428657219637 -0.9408701684341527 -0.014387945124953727 -0.9356425813507487 -0.01153296962132331 C -0.9247712148403451 -0.006004959316655761 -0.9142847820591207 0.00024946926803032926 -0.9042545720215036 0.00718779718859789 L -0.8889749965458021 0.01794009104186922 L -0.8745585770359939 0.030350101650827715 C -0.8648399165935314 0.03888571729564848 -0.8557609563936717 0.04812325361010979 -0.8473948873014143 0.05798824135341417 C -0.830672010288401 0.07763944950658312 -0.8165562023410597 0.09936745713915127 -0.8053974907357674 0.1226334785605599 C -0.7940522832597307 0.1459000091901782 -0.7855334940675546 0.1704411842723021 -0.7800229918443959 0.19573307122171396 C -0.7743086037753186 0.22091727173105957 -0.7713284232331084 0.24664456664979345 -0.771134200275105 0.2724682082160303 C -0.7706994145397972 0.2983676178893586 -0.7728363394763204 0.3242462384244051 -0.7775135516521646 0.3497235252957502 C -0.7820433617252528 0.37561107755168643 -0.7890690372347878 0.40099922703600616 -0.798492243008627 0.4255326274127536 C -0.8006872886437444 0.43182051855501763 -0.8033224866588206 0.4379312054923628 -0.8060662937027174 0.4440418924297089 C -0.8088101007466142 0.450152579367054 -0.8113824198502676 0.45649191689139046 -0.8144291889219281 0.4621681677134525 L -0.8234037244613408 0.4796313562949217 L -0.833195685849248 0.4966143786437085 C -0.8466887167749617 0.5189176835518803 -0.8617469502534173 0.5402356951743033 -0.8782570002805793 0.5604078924143105 C -0.9111761295540645 0.5997598314712195 -0.9484843117903357 0.635221111970302 -0.9894554969991766 0.66610162625109 C -1.028502115671051 0.6955943014585833 -1.0696184822118688 0.7222417110612352 -1.1124866615945788 0.7458378021996689 C -1.1534665630481138 0.7687028608988095 -1.193811959122748 0.7888869914654754 -1.2324367595302719 0.808053626920031 C -1.3098521320208878 0.846306870123693 -1.3803451079903393 0.8814390328149231 -1.4395027311096913 0.9222474463282151 C -1.4678924535049909 0.9414627781067026 -1.4946805617789527 0.962944114913562 -1.5196047479974566 0.9864811124787765 C -1.5420158237092054 1.0078134072464473 -1.5620413177345416 1.0315189308017063 -1.5793282813196123 1.0571798739765188 L -1.5853189266987875 1.0663601950442252 C -1.5872681729528892 1.0694241129099105 -1.588794415621057 1.0725966398044149 -1.5905664576702403 1.0756834227288 C -1.5939447700930385 1.0819141512243153 -1.597574598161527 1.0879733917795888 -1.6008557340848537 1.0941698226870555 C -1.6068514932123854 1.106676162008011 -1.612162135428109 1.119499559668688 -1.6167640986747813 1.1325831213016129 C -1.6179073516097382 1.13581852710754 -1.619050604544695 1.1390386895410025 -1.6201938574796522 1.142243608601999 C -1.6214438288606063 1.145404095473127 -1.622460241307878 1.1486520299850849 -1.623234910286638 1.1519612585491343 C -1.6249536005321898 1.1585349629251365 -1.6266551419837176 1.1650400721250425 -1.628339534641221 1.1714765861488508 L -1.6296428429870722 1.17630111353437 C -1.6299972513969088 1.1779245327020091 -1.6302144694545506 1.1795765331930221 -1.630523147746989 1.1812056686253356 C -1.631098585057584 1.1844753720193115 -1.6316702115250625 1.187726021197707 -1.6322380271494246 1.190957616160518 C -1.6332498059968614 1.197457009095749 -1.6349418203405979 1.2038077791494357 -1.635473432955353 1.2102614419672675 C -1.6412326157010086 1.2576448427877807 -1.639847184693578 1.30562430326764 -1.6313634386541827 1.35259643236942 C -1.6245306144670502 1.3893506153318003 -1.6144632248551956 1.42542909442532 -1.6012787376707873 1.4604109004005474 C -1.5784822741477444 1.5187796789947756 -1.5601216320123343 1.5520540556667008 -1.5708339120128818 1.5621089652296478 Z" fill="#03419c" transform="matrix(1,0,0,1,0,0)" fill-rule="nonzero"></path></g><g clip-path="url(#SvgjsClipPath1000389dccac-07a8-43d0-ad7c-c007e0fe73d5)"><path d=" M -0.9470122317888965 1.519865769282985 C -0.9404042298248447 1.5265766640111826 -0.9446056843608119 1.5435139562425713 -0.9635893993457736 1.5656816306513892 C -0.9753126557017877 1.5789691142332427 -0.9888482225954349 1.5905399649201217 -1.0037976050682131 1.6000535301408723 C -1.0237823859857376 1.613042884881463 -1.0454858016542457 1.6231730695884403 -1.0682770705997904 1.630149663653617 C -1.0965874073619197 1.6388961608343386 -1.1261101891369751 1.6430775901223482 -1.1557359201240038 1.642536809203876 C -1.1906966352674728 1.641746790747652 -1.225185724179695 1.634294881510332 -1.2573539572476606 1.6205806365880266 C -1.2659283542598383 1.6171908916358784 -1.2741712079208787 1.612789367836294 -1.2826141308455363 1.6085421831829285 C -1.2907426592130808 1.6037919672381824 -1.29915128454969 1.5991960904396554 -1.3070168647421945 1.5935941510583653 C -1.3151282443157146 1.5883409038222371 -1.3227423088625287 1.5822130680908675 -1.330499280026212 1.5761080974181976 C -1.3379304241034329 1.569585839424267 -1.3455273398562224 1.5631035952830605 -1.3524554526420622 1.5557353301172625 C -1.3823044603420334 1.5255162255764172 -1.4049080424199571 1.4889185537727754 -1.4185640536059532 1.4486982740819094 C -1.431815073868255 1.4080212223277346 -1.4351796545856452 1.3647715653600483 -1.4283788800525592 1.3225345964447262 C -1.4267938797201063 1.3125628805204563 -1.4246951227274698 1.302679643046041 -1.4220909889102957 1.2929243454293378 C -1.4167725555421986 1.2740451391733285 -1.4095601054851357 1.2557516386568475 -1.4005635361450546 1.2383225852557906 C -1.3960640930232584 1.2299361366830945 -1.3911260209133298 1.2217925154446183 -1.3857698431667103 1.2139255676238063 C -1.365767744052467 1.1841061835056725 -1.3392437733891513 1.1592281103512765 -1.30820584779455 1.141174667107816 C -1.281880309671433 1.1261282263101766 -1.2528814162306492 1.1163415608596197 -1.2228220023472829 1.1123589768822248 C -1.1987886740598022 1.109074153285016 -1.17437442636438 1.1098470617993161 -1.1505969981813717 1.1146454827521375 C -1.1329470823434127 1.118018507320322 -1.1159670271921542 1.1242532808117267 -1.1003281666313105 1.1331033013870193 C -1.0971613560014797 1.1349553711416498 -1.0941831821059167 1.1366245204266874 -1.0915194027674666 1.1384651576519687 C -1.0888822993308325 1.1404010659551624 -1.0864738464811896 1.1422607573960253 -1.084294044218538 1.1440442319745598 C -1.0821142419558867 1.1458277065530935 -1.08015927943711 1.1475254371615047 -1.0784291566622084 1.1491374237997936 C -1.076765723641846 1.1508980333196277 -1.0753309412084748 1.1525957639280389 -1.0741019443033961 1.1541677367136047 C -1.0691973892124302 1.1604956417085919 -1.0677283091910104 1.165171546212566 -1.0694603373874703 1.1682354640782513 C -1.0732959509842512 1.1749863726591732 -1.0886727029594234 1.1733801022855586 -1.1124980941239282 1.1727055830539328 C -1.1265060699044445 1.172183861169771 -1.140533378151816 1.1727668192043061 -1.1544497605721773 1.1744490437797412 C -1.1720036218129652 1.176476438335541 -1.1892543359806522 1.1805828374811305 -1.205838979998496 1.1866818501837857 C -1.2249365859217523 1.1936350108399785 -1.242801770036281 1.2035922748312269 -1.2587601583576573 1.216177775905678 C -1.2759963535720933 1.2301412273209071 -1.2902724025799395 1.2474042471053757 -1.3007518386586296 1.2669553550117916 C -1.3037928914656154 1.2719456540728815 -1.305959355777359 1.277599039836244 -1.3086059863217845 1.2829608961011922 C -1.310692422928081 1.2886771607759773 -1.3131789980616126 1.2942219375105186 -1.3148138497586013 1.300229731683718 C -1.316894570100223 1.306048889122649 -1.3180778368879036 1.3122338875007662 -1.319666958467494 1.318338858173436 C -1.3207130349029796 1.324586735462977 -1.3220506408368795 1.3308117476938184 -1.3225651046576101 1.3372025316002274 C -1.3255360163006857 1.3631242512796495 -1.322956089237344 1.3893814394809587 -1.3149967702281944 1.4142291980929569 C -1.3063922053705304 1.439168200156684 -1.2926714999863012 1.4620340954358637 -1.274714253064983 1.4813610104336348 C -1.2704613521469428 1.4863112956419986 -1.2655682295853268 1.4906213592067865 -1.2609952178454984 1.4951486408292165 C -1.256056365166484 1.4992757839244115 -1.2513347305451115 1.5036201450772484 -1.2461615110144308 1.5072899869984606 C -1.241234090864766 1.511291372270811 -1.2358265044824193 1.5145153455473888 -1.2307275963925108 1.5180765784397798 C -1.2253314425395136 1.5211176312467656 -1.2201582230088328 1.5245188087282633 -1.214670608921039 1.5270796953025676 C -1.1941308438999267 1.5376719285980938 -1.1719772763734346 1.5447860265316604 -1.1491107693659277 1.5481326980998016 C -1.1282698262991642 1.5510325425404632 -1.1071508133747998 1.5513512476445945 -1.0862318579432904 1.549081598035815 C -1.053936242155806 1.5450412900333217 -1.0222406510289792 1.5371480975954044 -0.9918220305745375 1.5255706014284245 C -0.9688312140525517 1.5175506820896973 -0.9536088012235986 1.5130576980553152 -0.9470122317888965 1.519865769282985 Z" fill="#4d70a6" transform="matrix(1,0,0,1,0,0)" fill-rule="nonzero"></path></g><g clip-path="url(#SvgjsClipPath1000389dccac-07a8-43d0-ad7c-c007e0fe73d5)"><path d=" M -0.866647266726091 0.7272942395946647 C -0.8642864494154048 0.7214122032443109 -0.8556491734918042 0.718719842582487 -0.8408783455721593 0.7192285901385431 C -0.8371913548569228 0.7193600642260638 -0.8331042256144514 0.7196401611951275 -0.8286741204914929 0.7202003551332562 C -0.8243107051230735 0.7208977394235806 -0.8195795433939096 0.7218085309284299 -0.8144806353040013 0.7229327296478033 C -0.8093817272140928 0.7240569283671776 -0.8039265052927895 0.7253907234579607 -0.7981149695400912 0.7269341149201536 C -0.7923987048653061 0.7286489943225885 -0.7863851944274319 0.7307125658701858 -0.7800001267856967 0.7329304765640036 C -0.7658542472111981 0.7379405697541848 -0.751989264066441 0.7437109673635639 -0.7384657476587069 0.7502164609405548 C -0.7223881887084467 0.7581063640977105 -0.7067312149677616 0.7668258827419872 -0.6915580797374206 0.7763397905043221 C -0.6542832246934833 0.7997987529064517 -0.6197682285128749 0.8273800698543339 -0.5886653155912867 0.8585625415864322 C -0.5704235080590958 0.8768036378128089 -0.5532626434220842 0.8960945797421029 -0.5372703799002918 0.9163368286544876 C -0.5200263808104477 0.9385454195026419 -0.5041990705918495 0.9618186295828246 -0.48988254574632273 0.9860180950401185 C -0.48214272337666375 0.9984281056490771 -0.4755290051479373 1.0117755836647007 -0.46836080924575674 1.0251230616803233 C -0.46500536188165786 1.031902551584618 -0.46183855125182705 1.0388420968998082 -0.4585459827991505 1.0458273723323956 L -0.4536585765022092 1.0563510155986746 C -0.452179969372998 1.0599446406575568 -0.45069564597911205 1.0635516036673451 -0.4492056063205514 1.067171904628044 C -0.436689793433495 1.096992554565175 -0.4265127233871122 1.1277416400067248 -0.4187664969273204 1.1591408869806623 C -0.41039128953072046 1.192337748824348 -0.4048457067586848 1.2261849264329798 -0.40218932937044305 1.260318771724362 C -0.4004744499680075 1.2777933928351797 -0.4003201108217882 1.2955709759737606 -0.40000571626467507 1.313514330787912 C -0.4002915294984144 1.3224964880135581 -0.4005792481537118 1.3315186590919272 -0.4008688722305678 1.3405808440230196 C -0.40101749511211215 1.3496582723265784 -0.4022293432231667 1.3587242681007878 -0.4029095787194661 1.367858859051094 C -0.40638846259454287 1.4050285762149568 -0.41327696531104063 1.4417997864102199 -0.4234881315486927 1.4777083173064414 C -0.4342373603446632 1.5142446603206055 -0.44793468618709364 1.549848149014174 -0.4644451679435293 1.584168030609644 C -0.48107472814805097 1.618178591748557 -0.5002801808281512 1.6508679921013734 -0.521893627925121 1.6819504541365182 C -0.5434357314439016 1.7122624534763333 -0.5675771992569718 1.740640440953953 -0.5940443206502592 1.7667626731163064 C -0.619714390566362 1.792043798146702 -0.6477129198172311 1.8148460729088092 -0.6776675565776926 1.8348662504516984 C -0.6850987006549132 1.8396393314551434 -0.6921811525869719 1.8447896859271258 -0.6997552032810626 1.8490997494919128 L -0.7221801096002449 1.8621499817444471 C -0.7374196712232224 1.8700498595250001 -0.7523619870831109 1.8781555228338447 -0.767767320381657 1.8845520230049309 C -0.7829268542991873 1.8915887448195916 -0.7983893502444814 1.897127805289459 -0.8135374516326622 1.9028040561115198 C -0.8211629487088257 1.9054735517146453 -0.8288398921670621 1.9077429087905344 -0.836402510331803 1.910172321277318 L -0.8477321469172273 1.9137164053756837 L -0.8591017973553752 1.9166831467418972 C -0.8881609960270863 1.9244083705157138 -0.9177008802227707 1.9301964233308364 -0.9475266956096271 1.9340091449711716 C -1.0749203133400034 1.9490421146792904 -1.2040519286573113 1.932077222043617 -1.3232396238892357 1.8846491995044024 C -1.3420991191205354 1.8771926806873762 -1.3601775448520033 1.8678949857761276 -1.3772125949485576 1.8568910182436438 C -1.3889080724731682 1.8488482338462218 -1.3942985100614906 1.8425431939099333 -1.3929494715982411 1.8381702514337215 C -1.3915318379588943 1.8335686583705195 -1.3834261746500491 1.8310192043255655 -1.3695127864316219 1.8303161037705669 C -1.349908586738588 1.8299535280437975 -1.330298718270166 1.83060032172066 -1.3107610181041789 1.8322539174953187 C -1.2607722835231827 1.8352663889789307 -1.1894618817052371 1.8417543493848123 -1.1038951157883772 1.8372327840270575 C -1.0579733613294091 1.8348829532588187 -1.0123222149012905 1.828765034313765 -0.967402147883854 1.8189407370677442 C -0.9430503779057191 1.813344710946544 -0.9190358422967891 1.806371086761928 -0.8954743894810335 1.7980535059460787 L -0.8863912449127997 1.7949324254336458 L -0.8774452906967609 1.7913311786885306 C -0.8714889429056347 1.7888846174077224 -0.8654011210269885 1.7866381253905328 -0.8594276244418381 1.784048657492855 C -0.8476292541530813 1.7785839084637607 -0.8355336381012357 1.7734049726684045 -0.8239181882820724 1.767025621291344 C -0.8119883439057957 1.7612293289111125 -0.8006815723790704 1.7540725655382803 -0.7890489737658826 1.74731022442801 L -0.7720659514170957 1.7361806571062033 C -0.766303956624912 1.7325736940964138 -0.7610278443300854 1.7281778865615034 -0.7554259049487959 1.7242565289946012 C -0.7329179435498059 1.70768862393879 -0.7118994615622896 1.689187233797261 -0.6926098724375809 1.6689631007954058 C -0.6725601275917976 1.6478943380144362 -0.6541981483033674 1.6252815997026406 -0.63769371770692 1.6013339734280219 C -0.6207866883316546 1.5761008742050424 -0.6055911452554188 1.549762187500576 -0.5922093996896538 1.5224952510333831 C -0.5791473216599243 1.495318602648321 -0.5681393890275568 1.46720165616589 -0.5592779988982162 1.4383804163439184 C -0.5510759041024746 1.4106183510379857 -0.5452848053331285 1.3822002742170745 -0.5419691494629666 1.3534424395412867 C -0.5413346440840654 1.3463485550798782 -0.5400999309143117 1.3393346983239158 -0.5398827128566699 1.332257962656533 C -0.5394673309569689 1.3252002812047314 -0.5390500436357095 1.3181730864978618 -0.5386308508928919 1.311176378535925 C -0.538579404510819 1.2971429487593273 -0.5381849822482587 1.2832295605408999 -0.539105300860899 1.2694476464099933 C -0.5402810333028798 1.2423500520904878 -0.5435876219717066 1.2153870195175724 -0.548994438748277 1.1888083006427992 C -0.554018008652637 1.1632541437076025 -0.5608431166897949 1.138087393528606 -0.5694186524312852 1.1134965135525026 C -0.5704247150140471 1.1104783258042166 -0.5714307775968095 1.1074715705852798 -0.5724368401795714 1.1044762478956924 L -0.5758665989844427 1.0956732002965233 L -0.5826746702121117 1.0782328767737537 C -0.5878193084194185 1.0669661190997521 -0.5922894273951005 1.0555564548088805 -0.5978742179823657 1.0448841886610565 C -0.6080990013298937 1.0239034129534677 -0.6194116264014464 1.003470472846997 -0.6317659512391678 0.9836687102587802 C -0.644067352819305 0.96480503683199 -0.6562887266939956 0.946775938047718 -0.6691846198003113 0.9304388536071813 C -0.6923805875221636 0.9005790804182504 -0.7177844884231015 0.8725019897948293 -0.7451823586515807 0.8464440604758868 C -0.7572265283213531 0.8345885275403837 -0.7692249678737271 0.824396427625241 -0.7801087358145183 0.8145587361199361 C -0.791352628429821 0.8052755222880846 -0.801436119316142 0.7961980939845259 -0.8110280114404315 0.7886812059371827 L -0.8243697731913802 0.77744874585123 C -0.828649350011236 0.7740609063206406 -0.8326278702248865 0.7707892975051056 -0.8363053338323317 0.7676339194046238 C -0.839982797439777 0.764478541304142 -0.8433439610685507 0.7614546372911807 -0.846388824718653 0.7585622073657392 C -0.8494927564370613 0.7558012515278183 -0.8523051586570556 0.753240364953514 -0.8547574362025384 0.7507537898199828 C -0.8645551138551197 0.740813205550532 -0.8688766099492573 0.7328504488585563 -0.866647266726091 0.7272942395946647 Z" fill="#03419c" transform="matrix(1,0,0,1,0,0)" fill-rule="nonzero"></path></g><g clip-path="url(#SvgjsClipPath1000389dccac-07a8-43d0-ad7c-c007e0fe73d5)"><path d=" M -0.8541400796176611 1.2991150600721302 C -0.8547395215433422 1.3042805171956906 -0.8582079230652948 1.3086630538986044 -0.8630974663630496 1.3104332641282042 C -0.8706252401853551 1.3133011134066508 -0.8788327697360013 1.3138798367163762 -0.8866884906758883 1.3120966971485686 C -0.8982393742644293 1.3098202518877962 -0.9091165779479338 1.3049320604068033 -0.9184880710617184 1.2978060354616037 C -0.9303829674664504 1.288918272044297 -0.9399983315880139 1.2773339916753474 -0.9465434980855642 1.2640057624395986 C -0.9530201692054995 1.250656472662057 -0.9560019171182613 1.235881479046843 -0.9552093553325387 1.2210651822026113 C -0.9546699633491804 1.2093792770917922 -0.9514277406238234 1.1979776887872322 -0.945737504766419 1.1877565079426389 C -0.9420530006529728 1.180763211914733 -0.9365742632450558 1.1748760846460171 -0.9298634377645408 1.1706991741530801 C -0.9262614884883781 1.1680506633699064 -0.9214903870357336 1.167610727781834 -0.9174648596849316 1.1695559212181212 C -0.9111769685426679 1.1737287944307164 -0.9106796535159615 1.1846582924889058 -0.9088904626727538 1.197565618124571 C -0.9074523696567335 1.2122672456401513 -0.9036094344084468 1.2266328714250787 -0.8975150959699312 1.2400889110402997 C -0.890566049536874 1.2528928613566257 -0.8813931606809581 1.2643575207137883 -0.8704257176761238 1.2739463467090515 C -0.8614283170780122 1.2827093804554954 -0.8534484115920121 1.289768967328856 -0.8541400796176611 1.2991150600721302 Z" fill="#4d70a6" transform="matrix(1,0,0,1,0,0)" fill-rule="nonzero"></path></g><g clip-path="url(#SvgjsClipPath1000389dccac-07a8-43d0-ad7c-c007e0fe73d5)"><path d=" M -1.0145613314508335 0.37738453005703815 C -1.0097139390066154 0.3855645048066559 -1.0150072000954666 0.3972085359491931 -1.0303896683353138 0.4071948503360431 C -1.0393993847126435 0.4127883460063108 -1.049302944816361 0.4167926944980713 -1.0596683759995633 0.41903323447752366 C -1.0723408670775272 0.42174620999210544 -1.0853430063416332 0.4225840015163068 -1.0982588788190382 0.4215198096110549 C -1.1111658983443093 0.4203294535505012 -1.1237887019437176 0.4170211820441088 -1.1356203847334347 0.4117278482231473 C -1.1452733592467812 0.40737852999654584 -1.1540956460533927 0.4013822377140429 -1.16169226791513 0.3940074277313139 C -1.1745881610214455 0.3810543719782503 -1.1775606186523337 0.3688558631622587 -1.1731247972647005 0.3637112249549515 C -1.168243107232434 0.3579035000453708 -1.157199283880749 0.35865233071776664 -1.1434002209558174 0.3605386980604462 L -1.1203693905811076 0.36400847071804077 C -1.1119664815091734 0.3651059935355993 -1.10300337849911 0.36629497658795446 -1.0935029466096173 0.36718671387722124 C -1.084008230984799 0.36792411202026876 -1.0749708165339635 0.3680727349018129 -1.0665793399913788 0.3681584788719353 L -1.0436628349101649 0.3679069632262443 C -1.0300981388368995 0.36801557225506437 -1.0192715335428564 0.36927315048351733 -1.0145613314508335 0.37738453005703815 Z" fill="#03419c" transform="matrix(1,0,0,1,0,0)" fill-rule="nonzero"></path></g></g></g><defs><clipPath id="SvgjsClipPath1001"><path d=" M -1.759762175779208 -0.04620211487389647 h 1.3597621757792078 v 1.9855902649040427 h -1.3597621757792078 Z"></path></clipPath><clipPath id="SvgjsClipPath1000389dccac-07a8-43d0-ad7c-c007e0fe73d5"><path d=" M -1.759762175779208 -0.04620211487389647 L -0.40000000000000013 -0.04620211487389647 L -0.40000000000000013 1.9393881500301462 L -1.759762175779208 1.9393881500301462 Z"></path></clipPath></defs></svg>